<svg xmlns="http://www.w3.org/2000/svg">
<defs>
<font id="BebasNeuePro-Bold" horiz-adv-x="400" >
  <font-face 
    font-family="Bebas Neue Pro"
    font-weight="700"
    font-stretch="normal"
    units-per-em="1000"
    panose-1="2 11 6 6 2 2 2 5 2 1"
    ascent="700"
    descent="-300"
    x-height="510"
    cap-height="700"
    bbox="-209 -200 796 919"
    underline-thickness="80"
    underline-position="-160"
    unicode-range="U+000D-U+FB02"
  />
<missing-glyph horiz-adv-x="738" 
d="M54 0v700h630v-700h-630zM152 134h434v432h-434v-432zM168 550h114v-112h-114v112zM346 390h-32v16h-16v80h32v32h-32v32h16v-16h32v-16h16v16h-16v16h32v-16h16v16h16v-32h16v-16h-16v-32h-16v-16h-16v48h-32v-16h16v-32h-16v16h-32v-48h16v32h16v-16h16v16h16v-32h-32
v-32zM426 550h16v-32h-16v32zM458 550h112v-112h-112v112zM184 454h82v80h-82v-80zM474 454h80v80h-80v-80zM200 518h50v-48h-50v48zM490 518h48v-48h-48v48zM410 454v-32h-16v32h16zM442 438h-16v16h16v-16zM200 406v-16h17v-16h-33v16h-16v32h49v-16h-17zM282 422v-16h-16
v-16h-32v16h16v16h32zM426 390v-16h-16v48h16v-16h16v-16h-16zM442 390h16v16h-16v16h64v-16h-16v-16h16v16h16v-16h16v-16h-16v-16h-32v16h-32v-16h-16v32zM570 374h-16v16h-16v32h32v-48zM282 406h16v-32h-32v16h16v16zM378 406h16v-16h-16v16zM362 390v-16h-16v16h16z
M217 358v16h17v-16h-17zM266 358h32v-16h-64v16h16v16h16v-16zM314 326v48h16v-48h-16zM410 358h-16v16h16v-16zM168 358h16v-32h-16v32zM410 342h48v16h32v-32h48v-16h-48v-16h16v-32h16v-16h-16v-16h16v-16h32v-16h16v-16h-32v16h-32v-32h-32v-16h-16v16h-16v-16h-16v32
h-16v-32h-32v16h16v16h-16v-16h-32v16h16v32h-16v-16h-16v32h48v16h16v-32h-16v-16h32v48h16v16h-16v16h-16v-16h-16v32h16v16h16v-16h16v16h-16v32zM378 310v-16h-32v16h16v32h-16v16h32v-16h16v-32h-16zM570 310h-16v16h-16v16h16v16h16v-48zM234 294h-17v16h-17v16h17v16
h17v-32h16v-32h-16v16zM298 326v-32h16v-32h-16v16h-32v16h16v16h-32v16h48zM330 326h16v-16h-16v16zM168 310h32v-16h-32v16zM314 310h16v-16h-16v16zM458 310h-16v-16h16v16zM217 278h-17v16h17v-16zM346 278h-16v16h16v-16zM538 294h16v-16h-16v16zM442 230h48v48h-48

<glyph glyph-name="fi" unicode="fi" horiz-adv-x="453" 
d="M71 510v76q0 124 125 124q34 0 58 -10v-90q-20 6 -36 6q-22 0 -31.5 -10t-9.5 -34v-62h77v-90h-77v-420h-106v420h-58v90h58zM306 573v116h106v-116h-106zM412 0h-106v510h106v-510z" />
    <glyph glyph-name="fl" unicode="fl" horiz-adv-x="453" 
d="M71 510v76q0 124 125 124q34 0 58 -10v-90q-20 6 -36 6q-22 0 -31.5 -10t-9.5 -34v-62h77v-90h-77v-420h-106v420h-58v90h58zM306 0v700h106v-700h-106z" />
    <glyph glyph-name=".notdef" horiz-adv-x="738" 
d="M54 0v700h630v-700h-630zM152 134h434v432h-434v-432zM168 550h114v-112h-114v112zM346 390h-32v16h-16v80h32v32h-32v32h16v-16h32v-16h16v16h-16v16h32v-16h16v16h16v-32h16v-16h-16v-32h-16v-16h-16v48h-32v-16h16v-32h-16v16h-32v-48h16v32h16v-16h16v16h16v-32h-32
v-32zM426 550h16v-32h-16v32zM458 550h112v-112h-112v112zM184 454h82v80h-82v-80zM474 454h80v80h-80v-80zM200 518h50v-48h-50v48zM490 518h48v-48h-48v48zM410 454v-32h-16v32h16zM442 438h-16v16h16v-16zM200 406v-16h17v-16h-33v16h-16v32h49v-16h-17zM282 422v-16h-16
v-16h-32v16h16v16h32zM426 390v-16h-16v48h16v-16h16v-16h-16zM442 390h16v16h-16v16h64v-16h-16v-16h16v16h16v-16h16v-16h-16v-16h-32v16h-32v-16h-16v32zM570 374h-16v16h-16v32h32v-48zM282 406h16v-32h-32v16h16v16zM378 406h16v-16h-16v16zM362 390v-16h-16v16h16z
M217 358v16h17v-16h-17zM266 358h32v-16h-64v16h16v16h16v-16zM314 326v48h16v-48h-16zM410 358h-16v16h16v-16zM168 358h16v-32h-16v32zM410 342h48v16h32v-32h48v-16h-48v-16h16v-32h16v-16h-16v-16h16v-16h32v-16h16v-16h-32v16h-32v-32h-32v-16h-16v16h-16v-16h-16v32
h-16v-32h-32v16h16v16h-16v-16h-32v16h16v32h-16v-16h-16v32h48v16h16v-32h-16v-16h32v48h16v16h-16v16h-16v-16h-16v32h16v16h16v-16h16v16h-16v32zM378 310v-16h-32v16h16v32h-16v16h32v-16h16v-32h-16zM570 310h-16v16h-16v16h16v16h16v-48zM234 294h-17v16h-17v16h17v16
h17v-32h16v-32h-16v16zM298 326v-32h16v-32h-16v16h-32v16h16v16h-32v16h48zM330 326h16v-16h-16v16zM168 310h32v-16h-32v16zM314 310h16v-16h-16v16zM458 310h-16v-16h16v16zM217 278h-17v16h17v-16zM346 278h-16v16h16v-16zM538 294h16v-16h-16v16zM442 230h48v48h-48
v-48zM522 278h16v-16h-16v16zM538 230v16h16v32h16v-64h-16v16h-16zM168 262h114v-112h-114v112zM314 246v16h16v-32h-32v16h16zM362 246h-16v16h16v-16zM458 262h16v-16h-16v16zM184 166h82v80h-82v-80zM200 230h50v-48h-50v48zM426 198h16v16h-16v-16zM458 182h32v32h-32
v-32zM298 198h32v-32h16v-16h-48v48zM522 166v-16h-16v16h16zM570 150h-16v16h16v-16z" />
    <glyph glyph-name=".null" horiz-adv-x="0" 
 />
    <glyph glyph-name="nonmarkingreturn" horiz-adv-x="333" 
 />
    <glyph glyph-name="CR" unicode="&#xd;" horiz-adv-x="160" 
 />
    <glyph glyph-name="space" unicode=" " horiz-adv-x="160" 
 />
    <glyph glyph-name="exclam" unicode="!" horiz-adv-x="214" 
d="M148 185h-82l-14 223v292h110v-292zM162 0h-110v110h110v-110z" />
    <glyph glyph-name="quotedbl" unicode="&#x22;" horiz-adv-x="324" 
d="M117 474h-59l-26 226h112zM265 474h-59l-26 226h112z" />
    <glyph glyph-name="numbersign" unicode="#" 
d="M125 0h-80l22 204h-50l7 71h50l19 190h-51l7 71h51l17 164h79l-16 -164h74l16 164h79l-16 -164h51l-8 -71h-50l-19 -190h51l-8 -71h-50l-21 -204h-79l20 204h-74zM172 465l-19 -190h75l18 190h-74z" />
    <glyph glyph-name="dollar" unicode="$" 
d="M364 182q0 -68 -30.5 -111t-88.5 -55v-71h-90v70q-119 23 -119 165v46h104v-53q0 -61 57 -61t57 63q0 39 -20.5 70.5t-73.5 73.5q-66 53 -93.5 99t-27.5 104q0 136 116 162v61h90v-60q118 -23 118 -165v-20h-104v27q0 62 -55 62t-55 -60q0 -36 20.5 -67t73.5 -73
q67 -54 94 -100.5t27 -106.5z" />
    <glyph glyph-name="percent" unicode="%" horiz-adv-x="561" 
d="M21 423v175q0 54 27 83t79 29t79 -29t27 -83v-175q0 -54 -27 -83t-79 -29t-79 29t-27 83zM180 0h-70l271 700h70zM163 418v185q0 44 -36 44t-36 -44v-185q0 -44 36 -44t36 44zM328 102v175q0 54 27 83t79 29t79 -29t27 -83v-175q0 -54 -27 -83t-79 -29t-79 29t-27 83z
M470 97v185q0 44 -36 44t-36 -44v-185q0 -44 36 -44t36 44z" />
    <glyph glyph-name="ampersand" unicode="&#x26;" horiz-adv-x="414" 
d="M394 406v-98h-31v-161q0 -91 14 -147h-98q-7 10 -9 61q-33 -71 -115 -71q-123 0 -123 149v78q0 114 81 144v2q-78 29 -78 141v33q0 84 41.5 128.5t122.5 44.5t122.5 -45t41.5 -129v-26h-102v35q0 67 -58 67q-60 0 -60 -72v-59q0 -39 17 -57t55 -18h179zM257 166v142h-44
q-37 0 -55 -20t-18 -70v-72q0 -61 52 -61q65 0 65 81z" />
    <glyph glyph-name="quotesingle" unicode="'" horiz-adv-x="176" 
d="M117 474h-59l-26 226h112z" />
    <glyph glyph-name="parenleft" unicode="(" horiz-adv-x="272" 
d="M238 -100h-32q-79 0 -115 33.5t-36 116.5v500q0 79 34 114.5t117 35.5h32v-82h-26q-30 0 -43.5 -14.5t-13.5 -53.5v-500q0 -37 12.5 -52.5t44.5 -15.5h26v-82z" />
    <glyph glyph-name="parenright" unicode=")" horiz-adv-x="272" 
d="M66 -100h-33v82h26q30 0 43.5 14.5t13.5 53.5v500q0 37 -12.5 52.5t-44.5 15.5h-26v82h33q79 0 114.5 -33.5t35.5 -116.5v-500q0 -79 -34 -114.5t-116 -35.5z" />
    <glyph glyph-name="asterisk" unicode="*" horiz-adv-x="424" 
d="M212 462l-77 -135l-72 53l106 112l-153 33l28 85l143 -68l-20 158h90l-20 -158l143 68l28 -85l-153 -33l106 -112l-72 -53z" />
    <glyph glyph-name="plus" unicode="+" 
d="M239 125h-78v137h-134v78h134v135h78v-135h134v-78h-134v-137z" />
    <glyph glyph-name="comma" unicode="," horiz-adv-x="200" 
d="M92 -120h-51l42 120h-38v110h110v-99z" />
    <glyph glyph-name="hyphen" unicode="-" horiz-adv-x="270" 
d="M245 255h-220v90h220v-90z" />
    <glyph glyph-name="period" unicode="." horiz-adv-x="200" 
d="M155 0h-110v110h110v-110z" />
    <glyph glyph-name="slash" unicode="/" horiz-adv-x="387" 
d="M103 -100h-95l276 800h95z" />
    <glyph glyph-name="zero" unicode="0" 
d="M33 166v368q0 84 43 130t124 46t124 -46t43 -130v-368q0 -84 -43 -130t-124 -46t-124 46t-43 130zM257 159v382q0 69 -57 69t-57 -69v-382q0 -69 57 -69t57 69z" />
    <glyph glyph-name="one" unicode="1" horiz-adv-x="291" 
d="M243 0h-110v534h-115v78q69 0 100 18q32 20 51 70h74v-700z" />
    <glyph glyph-name="two" unicode="2" horiz-adv-x="371" 
d="M342 0h-318v76q0 78 24 133t86 120q64 69 85 109q23 44 23 92q0 44 -14 62t-43 18q-57 0 -57 -69v-75h-104v68q0 85 42 130.5t122 45.5t122 -45.5t42 -130.5q0 -65 -31 -124q-31 -61 -105 -139q-48 -51 -65.5 -84t-17.5 -72v-15h209v-100z" />
    <glyph glyph-name="three" unicode="3" horiz-adv-x="374" 
d="M20 164v57h104v-62q0 -69 57 -69q29 0 43 18t14 61v57q0 48 -17 68.5t-55 20.5h-37v100h40q34 0 50 17.5t16 56.5v51q0 70 -55 70q-53 0 -53 -65v-46h-104v37q0 84 41.5 129t119.5 45q79 0 120 -44.5t41 -128.5v-25q0 -112 -78 -141v-2q81 -30 81 -144v-62
q0 -84 -41.5 -128.5t-122.5 -44.5t-122.5 45t-41.5 129z" />
    <glyph glyph-name="four" unicode="4" horiz-adv-x="399" 
d="M334 0h-110v127h-210v100l200 473h120v-473h52v-100h-52v-127zM224 505l-110 -278h110v278z" />
    <glyph glyph-name="five" unicode="5" horiz-adv-x="383" 
d="M29 166v55h104v-63q0 -68 57 -68t57 68v157q0 69 -57 69t-57 -69v-6h-104l20 391h290v-100h-192l-9 -167q32 51 97 51q122 0 122 -160v-158q0 -85 -42 -130.5t-122 -45.5t-122 45.5t-42 130.5z" />
    <glyph glyph-name="six" unicode="6" horiz-adv-x="393" 
d="M33 166v362q0 182 168 182q80 0 122 -45.5t42 -130.5v-13h-104v20q0 69 -57 69q-32 0 -46.5 -19.5t-14.5 -66.5v-134q33 61 102 61q122 0 122 -160v-125q0 -84 -43 -130t-124 -46t-124 46t-43 130zM257 158v124q0 69 -57 69t-57 -69v-124q0 -68 57 -68t57 68z" />
    <glyph glyph-name="seven" unicode="7" horiz-adv-x="356" 
d="M170 0h-115l179 600h-222v100h330v-96z" />
    <glyph glyph-name="eight" unicode="8" horiz-adv-x="396" 
d="M26 163v62q0 105 72 143v2q-68 38 -68 138v31q0 83 43.5 127t124.5 44t124.5 -44t43.5 -127v-31q0 -100 -68 -138v-2q72 -38 72 -143v-62q0 -84 -44.5 -128.5t-127.5 -44.5t-127.5 44.5t-44.5 128.5zM256 485v57q0 68 -58 68t-58 -68v-57q0 -70 58 -70t58 70zM260 169v67
q0 79 -62 79t-62 -79v-67q0 -79 62 -79t62 79z" />
    <glyph glyph-name="nine" unicode="9" horiz-adv-x="393" 
d="M192 -10q-80 0 -122 45.5t-42 130.5v13h104v-20q0 -69 57 -69q32 0 46.5 19.5t14.5 66.5v134q-33 -61 -102 -61q-122 0 -122 160v125q0 84 43 130t124 46t124 -46t43 -130v-362q0 -182 -168 -182zM250 418v124q0 68 -57 68t-57 -68v-124q0 -69 57 -69t57 69z" />
    <glyph glyph-name="colon" unicode=":" horiz-adv-x="200" 
d="M155 381h-110v110h110v-110zM155 0h-110v110h110v-110z" />
    <glyph glyph-name="semicolon" unicode=";" horiz-adv-x="200" 
d="M155 381h-110v110h110v-110zM92 -120h-51l42 120h-38v110h110v-99z" />
    <glyph glyph-name="less" unicode="&#x3c;" 
d="M348 211v-80l-306 132v74l306 132v-80l-211 -89z" />
    <glyph glyph-name="equal" unicode="=" 
d="M363 342h-326v78h326v-78zM363 180h-326v78h326v-78z" />
    <glyph glyph-name="greater" unicode="&#x3e;" 
d="M358 263l-306 -132v80l211 89l-211 89v80l306 -132v-74z" />
    <glyph glyph-name="question" unicode="?" horiz-adv-x="360" 
d="M212 185h-96v42q0 75 54 152q36 50 49 85t13 77q0 69 -55 69t-55 -69v-76h-104v69q0 85 41.5 130.5t119.5 45.5q80 0 121.5 -45.5t41.5 -130.5q0 -87 -73 -184q-57 -76 -57 -127v-38zM219 0h-110v110h110v-110z" />
    <glyph glyph-name="at" unicode="@" horiz-adv-x="692" 
d="M421 497h97l-30 -270q-1 -5 -1 -12q0 -26 25 -26q35 0 55 72q19 70 19 157q0 97 -56.5 152t-157.5 55q-254 0 -254 -380q0 -122 67 -186.5t191 -64.5q100 0 180 59l-8 -96q-76 -47 -174 -47q-166 0 -258 90t-92 255q0 209 88 331q88 124 257 124q144 0 222 -76t78 -218
q0 -121 -38 -212q-19 -49 -55.5 -77t-84.5 -28q-78 0 -91 67q-34 -67 -100 -67q-103 0 -103 115q0 3 2 29l13 132q14 132 114 132q64 0 91 -50zM337 184q49 0 60 77l9 88v7q0 67 -51 67q-43 0 -48 -60l-12 -117q-1 -3 -1 -14q0 -48 43 -48z" />
    <glyph glyph-name="A" unicode="A" horiz-adv-x="399" 
d="M388 0h-110l-19 137h-127l-19 -137h-102l114 700h149zM195 585l-49 -353h99z" />
    <glyph glyph-name="B" unicode="B" horiz-adv-x="404" 
d="M214 0h-173v700h166q84 0 123.5 -39.5t39.5 -121.5v-28q0 -108 -71 -137v-2q82 -28 82 -146v-60q0 -81 -42.5 -123.5t-124.5 -42.5zM151 600v-185h43q34 0 50 17.5t16 56.5v39q0 72 -56 72h-53zM151 315v-215h63q30 0 43.5 15.5t13.5 53.5v61q0 47 -16 66t-55 19h-49z
" />
    <glyph glyph-name="C" unicode="C" horiz-adv-x="381" 
d="M33 162v376q0 82 42 127t120 45t120 -45t42 -127v-74h-104v81q0 65 -55 65t-55 -65v-391q0 -64 55 -64t55 64v102h104v-94q0 -82 -42 -127t-120 -45t-120 45t-42 127z" />
    <glyph glyph-name="D" unicode="D" horiz-adv-x="406" 
d="M209 0h-168v700h168q164 0 164 -173v-354q0 -173 -164 -173zM151 600v-500h56q56 0 56 68v364q0 68 -56 68h-56z" />
    <glyph glyph-name="E" unicode="E" horiz-adv-x="359" 
d="M341 0h-300v700h300v-100h-190v-185h151v-100h-151v-215h190v-100z" />
    <glyph glyph-name="F" unicode="F" horiz-adv-x="344" 
d="M151 0h-110v700h291v-100h-181v-195h142v-100h-142v-305z" />
    <glyph glyph-name="G" unicode="G" horiz-adv-x="392" 
d="M33 166v368q0 85 42 130.5t122 45.5t122 -45.5t42 -130.5v-60h-104v67q0 69 -57 69t-57 -69v-383q0 -68 57 -68t57 68v137h-55v100h159v-229q0 -85 -42 -130.5t-122 -45.5t-122 45.5t-42 130.5z" />
    <glyph glyph-name="H" unicode="H" horiz-adv-x="420" 
d="M151 0h-110v700h110v-285h118v285h110v-700h-110v315h-118v-315z" />
    <glyph glyph-name="I" unicode="I" horiz-adv-x="192" 
d="M151 0h-110v700h110v-700z" />
    <glyph glyph-name="J" unicode="J" horiz-adv-x="259" 
d="M62 -4q-32 0 -51 4v100q15 -4 36 -4q65 0 65 67v537h110v-534q0 -170 -160 -170z" />
    <glyph glyph-name="K" unicode="K" horiz-adv-x="414" 
d="M403 0h-115l-92 308l-45 -88v-220h-110v700h110v-301l138 301h112l-131 -257z" />
    <glyph glyph-name="L" unicode="L" horiz-adv-x="344" 
d="M332 0h-291v700h110v-600h181v-100z" />
    <glyph glyph-name="M" unicode="M" horiz-adv-x="538" 
d="M137 0h-96v700h155l73 -508l73 508h155v-700h-104v530l-82 -530h-92l-82 530v-530z" />
    <glyph glyph-name="N" unicode="N" horiz-adv-x="427" 
d="M139 0h-98v700h136l111 -419v419h98v-700h-111l-136 511v-511z" />
    <glyph glyph-name="O" unicode="O" 
d="M33 166v368q0 84 43 130t124 46t124 -46t43 -130v-368q0 -84 -43 -130t-124 -46t-124 46t-43 130zM257 159v382q0 69 -57 69t-57 -69v-382q0 -69 57 -69t57 69z" />
    <glyph glyph-name="P" unicode="P" horiz-adv-x="385" 
d="M151 0h-110v700h162q164 0 164 -173v-69q0 -173 -164 -173h-52v-285zM151 600v-215h52q28 0 41 15.5t13 50.5v83q0 35 -13 50.5t-41 15.5h-52z" />
    <glyph glyph-name="Q" unicode="Q" 
d="M377 35h17v-100h-29q-76 0 -92 67q-31 -12 -73 -12q-81 0 -124 46t-43 130v368q0 84 43 130t124 46t124 -46t43 -130v-368q0 -71 -31 -115q9 -16 41 -16zM257 159v382q0 69 -57 69t-57 -69v-382q0 -69 57 -69t57 69z" />
    <glyph glyph-name="R" unicode="R" horiz-adv-x="403" 
d="M151 0h-110v700h163q84 0 123.5 -39.5t39.5 -121.5v-43q0 -110 -72 -138v-2q73 -22 73 -148v-123q0 -57 12 -85h-112q-10 29 -10 86v128q0 48 -15.5 67t-53.5 19h-38v-300zM151 600v-200h40q34 0 50 17.5t16 56.5v54q0 72 -56 72h-50z" />
    <glyph glyph-name="S" unicode="S" horiz-adv-x="371" 
d="M184 -10q-80 0 -121 45.5t-41 130.5v40h104v-48q0 -68 57 -68q58 0 58 70q0 43 -21 76q-20 33 -75 81q-68 61 -96 109q-27 50 -27 110q0 84 42 129t122 45q78 0 119 -45.5t41 -130.5v-29h-104v36q0 69 -55 69q-56 0 -56 -67q0 -39 21 -70q22 -34 76 -80q69 -60 95 -110
q27 -49 27 -115q0 -86 -42.5 -132t-123.5 -46z" />
    <glyph glyph-name="T" unicode="T" horiz-adv-x="364" 
d="M237 0h-110v600h-115v100h340v-100h-115v-600z" />
    <glyph glyph-name="U" unicode="U" horiz-adv-x="402" 
d="M37 166v534h110v-542q0 -68 56 -68t56 68v542h106v-534q0 -85 -42 -130.5t-122 -45.5t-122 45.5t-42 130.5z" />
    <glyph glyph-name="V" unicode="V" horiz-adv-x="382" 
d="M264 0h-146l-106 700h111l73 -550l73 550h101z" />
    <glyph glyph-name="W" unicode="W" horiz-adv-x="557" 
d="M232 0h-146l-71 700h106l50 -548l53 548h120l53 -548l50 548h95l-71 -700h-137l-51 481z" />
    <glyph glyph-name="X" unicode="X" horiz-adv-x="404" 
d="M114 0h-104l127 358l-121 342h116l75 -229l77 229h104l-121 -342l127 -358h-116l-81 247z" />
    <glyph glyph-name="Y" unicode="Y" horiz-adv-x="392" 
d="M251 0h-110v298l-133 402h117l76 -261l76 261h107l-133 -402v-298z" />
    <glyph glyph-name="Z" unicode="Z" horiz-adv-x="358" 
d="M339 0h-322v98l204 502h-194v100h312v-98l-204 -502h204v-100z" />
    <glyph glyph-name="bracketleft" unicode="[" horiz-adv-x="272" 
d="M239 -100h-178v800h178v-82h-78v-636h78v-82z" />
    <glyph glyph-name="backslash" unicode="\" horiz-adv-x="387" 
d="M379 -100h-95l-276 800h95z" />
    <glyph glyph-name="bracketright" unicode="]" horiz-adv-x="272" 
d="M211 -100h-178v82h78v636h-78v82h178v-800z" />
    <glyph glyph-name="asciicircum" unicode="^" 
d="M110 430h-90l143 270h74l143 -270h-90l-90 170z" />
    <glyph glyph-name="underscore" unicode="_" horiz-adv-x="300" 
d="M300 -112h-300v70h300v-70z" />
    <glyph glyph-name="grave" unicode="`" horiz-adv-x="500" 
d="M310 563h-83l-107 135h120z" />
    <glyph glyph-name="a" unicode="a" horiz-adv-x="372" 
d="M344 0h-97q-6 12 -8 60q-30 -70 -108 -70q-51 0 -81 34.5t-30 93.5q0 60 28 98.5t95 71.5q55 27 69 39q14 14 14 34v10q0 58 -43 58q-48 0 -48 -59v-19h-100v13q0 75 38.5 115.5t110.5 40.5q77 0 112.5 -40.5t35.5 -127.5v-205q0 -97 12 -147zM171 81q55 0 55 85v87
q-7 -9 -52 -38q-48 -30 -48 -79q0 -55 45 -55z" />
    <glyph glyph-name="b" unicode="b" horiz-adv-x="387" 
d="M237 520q116 0 116 -149v-232q0 -149 -116 -149q-37 0 -64.5 20.5t-40.5 57.5l-14 -68h-77v700h106v-227q33 47 90 47zM247 146v218q0 62 -45 62q-55 0 -55 -82v-178q0 -82 55 -82q45 0 45 62z" />
    <glyph glyph-name="c" unicode="c" horiz-adv-x="362" 
d="M31 154v202q0 79 40 121.5t115 42.5q74 0 112.5 -43t38.5 -121v-31h-102v41q0 60 -49 60t-49 -60v-222q0 -60 49 -60t49 60v51h102v-41q0 -78 -38.5 -121t-112.5 -43q-75 0 -115 42.5t-40 121.5z" />
    <glyph glyph-name="d" unicode="d" horiz-adv-x="387" 
d="M358 0h-97q-6 12 -9 60q-28 -70 -103 -70q-115 0 -115 149v232q0 149 115 149q58 0 91 -47v227h106v-553q0 -97 12 -147zM185 84q55 0 55 82v178q0 82 -55 82q-45 0 -45 -62v-218q0 -62 45 -62z" />
    <glyph glyph-name="e" unicode="e" horiz-adv-x="374" 
d="M345 354v-122h-208v-86q0 -62 53 -62t53 62v19h102v-9q0 -80 -40.5 -123t-116.5 -43t-116.5 43t-40.5 123v198q0 80 40.5 123t116.5 43t116.5 -43t40.5 -123zM137 364v-48h104v48q0 62 -52 62t-52 -62z" />
    <glyph glyph-name="f" unicode="f" horiz-adv-x="265" 
d="M218 616q-22 0 -31.5 -10t-9.5 -34v-62h77v-90h-77v-420h-106v420h-58v90h58v76q0 124 125 124q34 0 58 -10v-90q-20 6 -36 6z" />
    <glyph glyph-name="g" unicode="g" horiz-adv-x="385" 
d="M250 450l2 60h92v-517q0 -80 -37 -119t-120 -39q-75 0 -113.5 35t-38.5 102v3h102v-8q0 -45 48 -45q53 0 53 63v77q-33 -47 -90 -47q-116 0 -116 149v207q0 149 116 149q74 0 102 -70zM183 109q55 0 55 82v153q0 82 -55 82q-45 0 -45 -62v-193q0 -62 45 -62z" />
    <glyph glyph-name="h" unicode="h" horiz-adv-x="389" 
d="M237 520q114 0 114 -149v-371h-106v359q0 67 -44 67q-54 0 -54 -82v-344h-106v700h106v-226q31 46 90 46z" />
    <glyph glyph-name="i" unicode="i" horiz-adv-x="188" 
d="M147 573h-106v116h106v-116zM147 0h-106v510h106v-510z" />
    <glyph glyph-name="j" unicode="j" horiz-adv-x="188" 
d="M147 573h-106v116h106v-116zM38 -165q-33 0 -53 10v89q17 -5 30 -5q26 0 26 28v553h106v-564q0 -111 -109 -111z" />
    <glyph glyph-name="k" unicode="k" horiz-adv-x="394" 
d="M384 0h-114l-81 214l-42 -67v-147h-106v700h106v-404l118 214h113l-118 -188z" />
    <glyph glyph-name="l" unicode="l" horiz-adv-x="188" 
d="M147 0h-106v700h106v-700z" />
    <glyph glyph-name="m" unicode="m" horiz-adv-x="589" 
d="M437 520q114 0 114 -149v-371h-106v364q0 62 -43 62q-53 0 -53 -82v-344h-106v364q0 62 -43 62q-53 0 -53 -82v-344h-106v510h92l2 -59q29 69 100 69q76 0 102 -68q13 32 39.5 50t60.5 18z" />
    <glyph glyph-name="n" unicode="n" horiz-adv-x="389" 
d="M237 520q114 0 114 -149v-371h-106v359q0 67 -44 67q-54 0 -54 -82v-344h-106v510h92l2 -59q29 69 102 69z" />
    <glyph glyph-name="o" unicode="o" horiz-adv-x="374" 
d="M31 156v198q0 80 40.5 123t115.5 43t115.5 -43t40.5 -123v-198q0 -80 -40.5 -123t-115.5 -43t-115.5 43t-40.5 123zM237 146v218q0 62 -50 62t-50 -62v-218q0 -62 50 -62t50 62z" />
    <glyph glyph-name="p" unicode="p" horiz-adv-x="387" 
d="M237 520q116 0 116 -149v-232q0 -149 -116 -149q-57 0 -90 47v-192h-106v665h92l2 -60q28 70 102 70zM247 146v218q0 62 -45 62q-55 0 -55 -82v-178q0 -82 55 -82q45 0 45 62z" />
    <glyph glyph-name="q" unicode="q" horiz-adv-x="387" 
d="M255 442l14 68h77v-665h-106v192q-33 -47 -90 -47q-116 0 -116 149v232q0 149 116 149q37 0 64.5 -20.5t40.5 -57.5zM185 84q55 0 55 82v178q0 82 -55 82q-45 0 -45 -62v-218q0 -62 45 -62z" />
    <glyph glyph-name="r" unicode="r" horiz-adv-x="272" 
d="M234 520q18 0 30 -6v-103q-12 3 -27 3q-90 0 -90 -120v-294h-106v510h92l2 -86q21 96 99 96z" />
    <glyph glyph-name="s" unicode="s" horiz-adv-x="342" 
d="M175 -10q-73 0 -113.5 41t-40.5 115v16h102v-19q0 -62 47 -62q46 0 46 55q0 18 -12 33q-11 15 -22 23t-40 25q-34 19 -42 26q-23 18 -35 29q-39 39 -39 107q0 66 37.5 103.5t105.5 37.5q66 0 104.5 -40t38.5 -109v-11h-100v14q0 55 -42 55q-41 0 -41 -48q0 -26 18 -45.5
t60 -41.5q49 -27 76 -54q38 -35 38 -102q0 -70 -38 -109t-108 -39z" />
    <glyph glyph-name="t" unicode="t" horiz-adv-x="271" 
d="M253 510v-90h-77v-292q0 -24 9.5 -34t31.5 -10q17 0 36 6v-90q-24 -10 -58 -10q-125 0 -125 124v306h-58v90h63l10 138h91v-138h77z" />
    <glyph glyph-name="u" unicode="u" horiz-adv-x="389" 
d="M242 166v344h106v-510h-92l-2 59q-28 -69 -102 -69q-114 0 -114 149v371h106v-359q0 -67 44 -67q54 0 54 82z" />
    <glyph glyph-name="v" unicode="v" horiz-adv-x="360" 
d="M245 0h-130l-103 510h108l65 -367l64 367h99z" />
    <glyph glyph-name="w" unicode="w" horiz-adv-x="541" 
d="M226 0h-135l-77 510h104l54 -367l50 367h107l50 -367l54 367h94l-77 -510h-128l-48 314z" />
    <glyph glyph-name="x" unicode="x" horiz-adv-x="376" 
d="M115 0h-105l114 262l-108 248h116l61 -159l62 159h105l-108 -248l114 -262h-116l-67 175z" />
    <glyph glyph-name="y" unicode="y" horiz-adv-x="359" 
d="M94 -165q-36 0 -57 10v90q18 -6 39 -6q27 0 39 9t17 34l2 7l-123 531h108l68 -351l61 351h99l-113 -554q-13 -65 -45.5 -93t-94.5 -28z" />
    <glyph glyph-name="z" unicode="z" horiz-adv-x="332" 
d="M310 0h-291v88l179 332h-169v90h281v-88l-179 -332h179v-90z" />
    <glyph glyph-name="braceleft" unicode="{" horiz-adv-x="272" 
d="M249 -100h-57q-50 0 -80.5 29t-30.5 82v189q0 34 -13 46.5t-50 12.5v82q37 0 50 12.5t13 46.5v189q0 53 30.5 82t80.5 29h57v-82h-16q-30 0 -41 -12.5t-11 -47.5v-169q0 -70 -62 -88v-2q62 -18 62 -88v-169q0 -35 11 -47.5t41 -12.5h16v-82z" />
    <glyph glyph-name="bar" unicode="|" horiz-adv-x="300" 
d="M195 -200h-90v1000h90v-1000z" />
    <glyph glyph-name="braceright" unicode="}" horiz-adv-x="272" 
d="M79 -100h-57v82h16q30 0 41 12.5t11 47.5v169q0 70 62 88v2q-62 18 -62 88v169q0 35 -11 47.5t-41 12.5h-16v82h57q50 0 80.5 -29t30.5 -82v-189q0 -34 13 -46.5t50 -12.5v-82q-37 0 -50 -12.5t-13 -46.5v-189q0 -53 -30.5 -82t-80.5 -29z" />
    <glyph glyph-name="asciitilde" unicode="~" 
d="M69 227l-57 43q32 55 58.5 77.5t62.5 22.5q30 0 74 -29q44 -28 59 -28q16 0 27.5 11t37.5 49l57 -43q-32 -55 -58.5 -77.5t-62.5 -22.5q-28 0 -74 29q-43 28 -59 28t-27.5 -11t-37.5 -49z" />
    <glyph glyph-name="uni00A0" unicode="&#xa0;" horiz-adv-x="160" 
 />
    <glyph glyph-name="exclamdown" unicode="&#xa1;" horiz-adv-x="214" 
d="M162 400h-110v110h110v-110zM162 -190h-110v292l14 223h82l14 -223v-292z" />
    <glyph glyph-name="cent" unicode="&#xa2;" 
d="M366 476v-34h-104v41q0 65 -55 65t-55 -65v-266q0 -65 55 -65t55 65v61h104v-54q0 -143 -118 -168v-76h-90v77q-57 12 -86.5 55t-29.5 112v252q0 69 29.5 112t86.5 55v67h90v-66q118 -25 118 -168z" />
    <glyph glyph-name="sterling" unicode="&#xa3;" 
d="M363 0h-327v94q44 21 69.5 59.5t25.5 84.5q0 17 -3 32h-92v85h74l-35 65q-29 60 -29 131q0 73 42.5 116t119.5 43q80 0 121 -45.5t41 -130.5v-41h-104v48q0 69 -55 69t-55 -69q0 -35 9 -70q11 -35 27 -72l20 -44h122v-85h-103q1 -5 1 -23q0 -83 -70 -147h201v-100z" />
    <glyph glyph-name="currency" unicode="&#xa4;" 
d="M312 284l58 -54l-49 -49l-53 59q-67 -39 -134 0l-53 -59l-49 49l58 54q-18 31 -18 66t18 66l-58 54l49 49l53 -59q67 39 134 0l53 59l49 -49l-58 -54q18 -31 18 -66t-18 -66zM162 311q15 -14 39 -14t38 14q15 15 15 39t-15 38q-14 15 -38 15t-39 -15q-14 -14 -14 -38
t14 -39z" />
    <glyph glyph-name="yen" unicode="&#xa5;" 
d="M281 700h107l-125 -377h85v-69h-93v-73h93v-69h-93v-112h-110v112h-89v69h89v73h-89v69h81l-125 377h117l76 -261z" />
    <glyph glyph-name="brokenbar" unicode="&#xa6;" horiz-adv-x="300" 
d="M195 400h-90v400h90v-400zM195 -200h-90v400h90v-400z" />
    <glyph glyph-name="section" unicode="&#xa7;" horiz-adv-x="414" 
d="M318 158q47 -45 47 -114t-42 -110t-116 -41q-71 0 -114.5 43.5t-43.5 115.5v13h101v-16q0 -65 56 -65q24 0 39.5 15.5t15.5 42.5q0 36 -31 58q-23 19 -67 40q-61 32 -92 58q-46 40 -46 111q0 97 71 136q-47 45 -47 114t42 110t116 41q71 0 114.5 -43t43.5 -116v-13h-101
v16q0 65 -56 65q-24 0 -39.5 -15.5t-15.5 -42.5q0 -35 30 -59q28 -20 68 -39q28 -14 50 -28q20 -11 42 -31q46 -39 46 -110q0 -97 -71 -136zM131 321q0 -38 30 -62q24 -19 68 -42l12 -6q42 13 42 71q0 38 -30 62q-24 19 -68 42l-12 6q-42 -14 -42 -71z" />
    <glyph glyph-name="dieresis" unicode="&#xa8;" horiz-adv-x="500" 
d="M227 573h-95v116h95v-116zM368 573h-95v116h95v-116z" />
    <glyph glyph-name="copyright" unicode="&#xa9;" horiz-adv-x="740" 
d="M619 92q-99 -102 -249 -102t-249 102q-99 104 -99 258q0 155 99 257q99 103 249 103t249 -103q99 -102 99 -257q0 -154 -99 -258zM171 141q78 -81 199 -81q122 0 198 81q78 83 78 209q0 127 -78 208q-76 82 -198 82q-121 0 -199 -82q-77 -82 -77 -208t77 -209zM253 252
v194q0 124 113 124t113 -124v-36h-72v42q0 48 -39 48t-39 -48v-204q0 -47 39 -47t39 47v60h72v-56q0 -122 -113 -122t-113 122z" />
    <glyph glyph-name="ordfeminine" unicode="&#xaa;" horiz-adv-x="276" 
d="M108 544q39 19 50 28.5t11 25.5v7q0 45 -34 45q-38 0 -38 -46v-12h-67v9q0 51 27 80t78 29q105 0 105 -117v-149q0 -72 7 -104h-64q-3 8 -6 45q-19 -52 -77 -52q-38 0 -59 24t-21 67q0 42 20 69.5t68 50.5zM125 394q44 0 44 65v64q-6 -8 -40 -27q-39 -22 -39 -60
q0 -42 35 -42zM240 219h-212v63h212v-63z" />
    <glyph glyph-name="guillemotleft" unicode="&#xab;" horiz-adv-x="344" 
d="M175 184h-80l-77 116l77 110h80l-57 -110zM323 184h-80l-76 116l76 110h80l-56 -110z" />
    <glyph glyph-name="logicalnot" unicode="&#xac;" 
d="M363 164h-78v137h-268v78h346v-215z" />
    <glyph glyph-name="uni00AD" unicode="&#xad;" horiz-adv-x="270" 
d="M245 255h-220v90h220v-90z" />
    <glyph glyph-name="registered" unicode="&#xae;" horiz-adv-x="740" 
d="M619 92q-99 -102 -249 -102t-249 102q-99 104 -99 258q0 155 99 257q99 103 249 103t249 -103q99 -102 99 -257q0 -154 -99 -258zM171 141q78 -81 199 -81q122 0 198 81q78 83 78 209q0 127 -78 208q-76 82 -198 82q-121 0 -199 -82q-77 -82 -77 -208t77 -209zM336 136
h-76v428h116q113 0 113 -112v-9q0 -71 -52 -93v-2q52 -16 52 -92v-61q0 -39 9 -59h-78q-7 17 -7 60v55q0 33 -10 45.5t-37 12.5h-30v-173zM336 494v-115h31q46 0 46 51v13q0 51 -41 51h-36z" />
    <glyph glyph-name="overscore" unicode="&#xaf;" horiz-adv-x="500" 
d="M365 592h-230v78h230v-78z" />
    <glyph glyph-name="degree" unicode="&#xb0;" 
d="M290 493q-37 -37 -90 -37t-90 37t-37 90t37 90t90 37t90 -37t37 -90t-37 -90zM163 546q15 -15 37 -15t37 15q16 15 16 37t-16 37q-15 16 -37 16t-37 -16q-15 -15 -15 -37t15 -37z" />
    <glyph glyph-name="plusminus" unicode="&#xb1;" 
d="M363 104h-326v78h124v115h-124v78h124v119h78v-119h124v-78h-124v-115h124v-78z" />
    <glyph glyph-name="uni00B2" unicode="&#xb2;" horiz-adv-x="278" 
d="M239 351h-202v50q0 49 15 85t54 77q39 39 54 68.5t15 63.5q0 47 -36 47t-36 -44v-41h-66v37q0 111 104 111q51 0 77.5 -28t26.5 -80q0 -43 -19.5 -81.5t-66.5 -88.5q-31 -33 -42 -54t-11 -47v-12h133v-63z" />
    <glyph glyph-name="uni00B3" unicode="&#xb3;" horiz-adv-x="278" 
d="M32 453v37h66v-42q0 -44 36 -44t36 51v40q0 31 -10.5 43.5t-34.5 12.5h-24v63h27q42 0 42 48v29q0 51 -36 51t-36 -44v-27h-66v22q0 112 104 112t104 -112v-19q0 -67 -49 -89v-2q49 -21 49 -93v-37q0 -112 -104 -112t-104 112z" />
    <glyph glyph-name="acute" unicode="&#xb4;" horiz-adv-x="500" 
d="M273 563h-83l70 135h120z" />
    <glyph glyph-name="uni00B5" unicode="&#xb5;" horiz-adv-x="392" 
d="M245 166v344h106v-510h-92l-2 59q-29 -69 -102 -69h-8v-145h-106v665h106v-359q0 -67 44 -67q54 0 54 82z" />
    <glyph glyph-name="paragraph" unicode="&#xb6;" horiz-adv-x="451" 
d="M258 -97h-82v402q-148 0 -148 161v61q0 173 163 173h209v-797h-82v717h-60v-717z" />
    <glyph glyph-name="middot" unicode="&#xb7;" horiz-adv-x="200" 
d="M155 245h-110v110h110v-110z" />
    <glyph glyph-name="cedilla" unicode="&#xb8;" horiz-adv-x="500" 
d="M247 -155q-96 0 -96 62v10h74v-8q0 -24 22 -24q26 0 26 28q0 30 -37 30h-5v71h49v-53q36 0 52.5 -12t16.5 -39q0 -38 -23.5 -51.5t-78.5 -13.5z" />
    <glyph glyph-name="uni00B9" unicode="&#xb9;" horiz-adv-x="278" 
d="M196 351h-70v339h-74v49q43 0 63.5 12t34.5 44h46v-444z" />
    <glyph glyph-name="ordmasculine" unicode="&#xba;" horiz-adv-x="277" 
d="M29 451v141q0 56 29 87t81 31t81 -31t29 -87v-141q0 -57 -28.5 -87.5t-81.5 -30.5t-81.5 30.5t-28.5 87.5zM179 444v155q0 48 -40 48t-40 -48v-155q0 -48 40 -48t40 48zM245 219h-212v63h212v-63z" />
    <glyph glyph-name="guillemotright" unicode="&#xbb;" horiz-adv-x="343" 
d="M101 184h-80l56 116l-56 110h80l76 -110zM249 184h-80l56 116l-56 110h80l76 -110z" />
    <glyph glyph-name="onequarter" unicode="&#xbc;" horiz-adv-x="649" 
d="M196 256h-70v339h-74v49q43 0 63.5 12t34.5 44h46v-444zM224 0h-70l271 700h70zM595 0h-70v80h-133v63l127 301h76v-301h33v-63h-33v-80zM526 323l-71 -180h71v180z" />
    <glyph glyph-name="onehalf" unicode="&#xbd;" horiz-adv-x="649" 
d="M196 256h-70v339h-74v49q43 0 63.5 12t34.5 44h46v-444zM224 0h-70l271 700h70zM610 0h-202v50q0 49 15 85t54 77q39 39 54 68.5t15 63.5q0 47 -36 47t-36 -44v-41h-66v37q0 111 104 111q51 0 77.5 -28t26.5 -80q0 -42 -19.5 -81t-66.5 -89q-31 -33 -42 -54t-11 -47v-12
h133v-63z" />
    <glyph glyph-name="threequarters" unicode="&#xbe;" horiz-adv-x="649" 
d="M32 358v37h66v-42q0 -44 36 -44t36 51v40q0 31 -10.5 43.5t-34.5 12.5h-24v63h27q42 0 42 48v29q0 51 -36 51t-36 -44v-27h-66v22q0 112 104 112t104 -112v-19q0 -67 -49 -89v-2q49 -21 49 -93v-37q0 -112 -104 -112t-104 112zM224 0h-70l271 700h70zM595 0h-70v80h-133
v63l127 301h76v-301h33v-63h-33v-80zM526 323l-71 -180h71v180z" />
    <glyph glyph-name="questiondown" unicode="&#xbf;" horiz-adv-x="360" 
d="M251 400h-110v110h110v-110zM181 -200q-80 0 -121.5 45.5t-41.5 130.5q0 87 73 184q57 76 57 127v38h96v-42q0 -75 -54 -152q-36 -50 -49 -85t-13 -77q0 -69 55 -69t55 69v76h104v-69q0 -85 -41.5 -130.5t-119.5 -45.5z" />
    <glyph glyph-name="Agrave" unicode="&#xc0;" horiz-adv-x="399" 
d="M190 878l70 -135h-83l-107 135h120zM388 0h-110l-19 137h-127l-19 -137h-102l114 700h149zM195 585l-49 -353h99z" />
    <glyph glyph-name="Aacute" unicode="&#xc1;" horiz-adv-x="399" 
d="M210 878h120l-107 -135h-83zM388 0h-110l-19 137h-127l-19 -137h-102l114 700h149zM195 585l-49 -353h99z" />
    <glyph glyph-name="Acircumflex" unicode="&#xc2;" horiz-adv-x="399" 
d="M251 743l-51 75l-51 -75h-83l82 135h104l82 -135h-83zM388 0h-110l-19 137h-127l-19 -137h-102l114 700h149zM195 585l-49 -353h99z" />
    <glyph glyph-name="Atilde" unicode="&#xc3;" horiz-adv-x="399" 
d="M157 791q-21 0 -37 -39l-54 32q38 84 91 84q25 0 54 -22q21 -15 32 -15q19 0 37 39l54 -32q-38 -84 -91 -84q-25 0 -54 22q-21 15 -32 15zM388 0h-110l-19 137h-127l-19 -137h-102l114 700h149zM195 585l-49 -353h99z" />
    <glyph glyph-name="Adieresis" unicode="&#xc4;" horiz-adv-x="399" 
d="M82 869h95v-116h-95v116zM223 869h95v-116h-95v116zM388 0h-110l-19 137h-127l-19 -137h-102l114 700h149zM195 585l-49 -353h99z" />
    <glyph glyph-name="Aring" unicode="&#xc5;" horiz-adv-x="399" 
d="M263 768q-25 -25 -63 -25q-39 0 -64 25q-25 26 -25 63t25 62q26 26 64 26q37 0 63 -26q26 -25 26 -62t-26 -63zM223 856q-9 10 -23 10t-23 -10q-9 -9 -9 -25t9 -26q9 -9 23 -9t23 9q9 10 9 26t-9 25zM388 0h-110l-19 137h-127l-19 -137h-102l114 700h149zM195 585
l-49 -353h99z" />
    <glyph glyph-name="AE" unicode="&#xc6;" horiz-adv-x="575" 
d="M557 700v-100h-190v-185h151v-100h-151v-215h190v-100h-300v137h-108l-35 -137h-105l189 700h359zM257 565l-84 -333h84v333z" />
    <glyph glyph-name="Ccedilla" unicode="&#xc7;" horiz-adv-x="381" 
d="M357 538v-74h-104v81q0 65 -55 65t-55 -65v-391q0 -64 55 -64t55 64v102h104v-94q0 -75 -34.5 -119t-99.5 -51v-31q36 0 52.5 -12t16.5 -39q0 -38 -23.5 -51.5t-78.5 -13.5q-96 0 -96 62v10h74v-8q0 -24 22 -24q26 0 26 28q0 30 -37 30h-5v48q-69 6 -105 50.5t-36 120.5
v376q0 82 42 127t120 45t120 -45t42 -127z" />
    <glyph glyph-name="Egrave" unicode="&#xc8;" horiz-adv-x="359" 
d="M251 743h-83l-107 135h120zM341 0h-300v700h300v-100h-190v-185h151v-100h-151v-215h190v-100z" />
    <glyph glyph-name="Eacute" unicode="&#xc9;" horiz-adv-x="359" 
d="M214 743h-83l70 135h120zM341 0h-300v700h300v-100h-190v-185h151v-100h-151v-215h190v-100z" />
    <glyph glyph-name="Ecircumflex" unicode="&#xca;" horiz-adv-x="359" 
d="M140 743h-83l82 135h104l82 -135h-83l-51 75zM341 0h-300v700h300v-100h-190v-185h151v-100h-151v-215h190v-100z" />
    <glyph glyph-name="Edieresis" unicode="&#xcb;" horiz-adv-x="359" 
d="M168 753h-95v116h95v-116zM309 753h-95v116h95v-116zM341 0h-300v700h300v-100h-190v-185h151v-100h-151v-215h190v-100z" />
    <glyph glyph-name="Igrave" unicode="&#xcc;" horiz-adv-x="192" 
d="M156 743h-83l-107 135h120zM151 0h-110v700h110v-700z" />
    <glyph glyph-name="Iacute" unicode="&#xcd;" horiz-adv-x="192" 
d="M119 743h-83l70 135h120zM151 0h-110v700h110v-700z" />
    <glyph glyph-name="Icircumflex" unicode="&#xce;" horiz-adv-x="192" 
d="M45 743h-83l82 135h104l82 -135h-83l-51 75zM151 0h-110v700h110v-700z" />
    <glyph glyph-name="Idieresis" unicode="&#xcf;" horiz-adv-x="192" 
d="M73 753h-95v116h95v-116zM214 753h-95v116h95v-116zM151 0h-110v700h110v-700z" />
    <glyph glyph-name="Eth" unicode="&#xd0;" horiz-adv-x="424" 
d="M59 700h168q164 0 164 -173v-354q0 -173 -164 -173h-168v318h-47v94h47v288zM281 168v364q0 68 -56 68h-56v-188h57v-94h-57v-218h56q56 0 56 68z" />
    <glyph glyph-name="Ntilde" unicode="&#xd1;" horiz-adv-x="427" 
d="M134 752l-54 32q38 84 91 84q25 0 54 -22q21 -15 32 -15q19 0 37 39l54 -32q-38 -84 -91 -84q-25 0 -54 22q-21 15 -32 15q-21 0 -37 -39zM139 0h-98v700h136l111 -419v419h98v-700h-111l-136 511v-511z" />
    <glyph glyph-name="Ograve" unicode="&#xd2;" 
d="M260 743h-83l-107 135h120zM33 166v368q0 84 43 130t124 46t124 -46t43 -130v-368q0 -84 -43 -130t-124 -46t-124 46t-43 130zM257 159v382q0 69 -57 69t-57 -69v-382q0 -69 57 -69t57 69z" />
    <glyph glyph-name="Oacute" unicode="&#xd3;" 
d="M223 743h-83l70 135h120zM33 166v368q0 84 43 130t124 46t124 -46t43 -130v-368q0 -84 -43 -130t-124 -46t-124 46t-43 130zM257 159v382q0 69 -57 69t-57 -69v-382q0 -69 57 -69t57 69z" />
    <glyph glyph-name="Ocircumflex" unicode="&#xd4;" 
d="M149 743h-83l82 135h104l82 -135h-83l-51 75zM33 166v368q0 84 43 130t124 46t124 -46t43 -130v-368q0 -84 -43 -130t-124 -46t-124 46t-43 130zM257 159v382q0 69 -57 69t-57 -69v-382q0 -69 57 -69t57 69z" />
    <glyph glyph-name="Otilde" unicode="&#xd5;" 
d="M120 752l-54 32q38 84 91 84q25 0 54 -22q21 -15 32 -15q19 0 37 39l54 -32q-38 -84 -91 -84q-25 0 -54 22q-21 15 -32 15q-21 0 -37 -39zM33 166v368q0 84 43 130t124 46t124 -46t43 -130v-368q0 -84 -43 -130t-124 -46t-124 46t-43 130zM257 159v382q0 69 -57 69
t-57 -69v-382q0 -69 57 -69t57 69z" />
    <glyph glyph-name="Odieresis" unicode="&#xd6;" 
d="M177 753h-95v116h95v-116zM318 753h-95v116h95v-116zM33 166v368q0 84 43 130t124 46t124 -46t43 -130v-368q0 -84 -43 -130t-124 -46t-124 46t-43 130zM257 159v382q0 69 -57 69t-57 -69v-382q0 -69 57 -69t57 69z" />
    <glyph glyph-name="multiply" unicode="&#xd7;" 
d="M202 247l-107 -110l-53 53l106 110l-105 109l53 53l106 -109l106 110l53 -53l-106 -110l106 -110l-53 -53z" />
    <glyph glyph-name="Oslash" unicode="&#xd8;" 
d="M317 726l60 -26l-29 -71q19 -37 19 -95v-368q0 -84 -43 -130t-124 -46q-59 0 -100 26l-17 -42l-60 26l29 71q-19 37 -19 95v368q0 84 43 130t124 46q59 0 100 -26zM143 541v-245l111 274q-10 40 -54 40q-57 0 -57 -69zM257 159v245l-111 -274q10 -40 54 -40q57 0 57 69z
" />
    <glyph glyph-name="Ugrave" unicode="&#xd9;" horiz-adv-x="402" 
d="M261 743h-83l-107 135h120zM37 166v534h110v-542q0 -68 56 -68t56 68v542h106v-534q0 -85 -42 -130.5t-122 -45.5t-122 45.5t-42 130.5z" />
    <glyph glyph-name="Uacute" unicode="&#xda;" horiz-adv-x="402" 
d="M224 743h-83l70 135h120zM37 166v534h110v-542q0 -68 56 -68t56 68v542h106v-534q0 -85 -42 -130.5t-122 -45.5t-122 45.5t-42 130.5z" />
    <glyph glyph-name="Ucircumflex" unicode="&#xdb;" horiz-adv-x="402" 
d="M150 743h-83l82 135h104l82 -135h-83l-51 75zM37 166v534h110v-542q0 -68 56 -68t56 68v542h106v-534q0 -85 -42 -130.5t-122 -45.5t-122 45.5t-42 130.5z" />
    <glyph glyph-name="Udieresis" unicode="&#xdc;" horiz-adv-x="402" 
d="M178 753h-95v116h95v-116zM319 753h-95v116h95v-116zM37 166v534h110v-542q0 -68 56 -68t56 68v542h106v-534q0 -85 -42 -130.5t-122 -45.5t-122 45.5t-42 130.5z" />
    <glyph glyph-name="Yacute" unicode="&#xdd;" horiz-adv-x="392" 
d="M219 743h-83l70 135h120zM251 0h-110v298l-133 402h117l76 -261l76 261h107l-133 -402v-298z" />
    <glyph glyph-name="Thorn" unicode="&#xde;" horiz-adv-x="385" 
d="M151 0h-110v700h110v-99h52q164 0 164 -173v-69q0 -173 -164 -173h-52v-186zM151 501v-215h52q28 0 41 15.5t13 50.5v83q0 35 -13 50.5t-41 15.5h-52z" />
    <glyph glyph-name="germandbls" unicode="&#xdf;" horiz-adv-x="396" 
d="M243 -10q-32 0 -56 10v90q17 -6 36 -6q53 0 53 58q0 32 -36 66q-21 19 -30 31q-31 41 -31 111q0 44 27 94q31 58 31 113q0 60 -45 60t-45 -59v-558h-106v551q0 159 155 159q67 0 107 -39t40 -114q0 -64 -33 -124q-25 -44 -25 -83q2 -30 11.5 -46.5t31.5 -38.5
q18 -18 26 -30q28 -34 28 -93q0 -69 -37.5 -110.5t-101.5 -41.5z" />
    <glyph glyph-name="agrave" unicode="&#xe0;" horiz-adv-x="372" 
d="M171 698l70 -135h-83l-107 135h120zM344 0h-97q-6 12 -8 60q-30 -70 -108 -70q-51 0 -81 34.5t-30 93.5q0 60 28 98.5t95 71.5q55 27 69 39q14 14 14 34v10q0 58 -43 58q-48 0 -48 -59v-19h-100v13q0 75 38.5 115.5t110.5 40.5q77 0 112.5 -40.5t35.5 -127.5v-205
q0 -97 12 -147zM171 81q55 0 55 85v87q-7 -9 -52 -38q-48 -30 -48 -79q0 -55 45 -55z" />
    <glyph glyph-name="aacute" unicode="&#xe1;" horiz-adv-x="372" 
d="M191 698h120l-107 -135h-83zM344 0h-97q-6 12 -8 60q-30 -70 -108 -70q-51 0 -81 34.5t-30 93.5q0 60 28 98.5t95 71.5q55 27 69 39q14 14 14 34v10q0 58 -43 58q-48 0 -48 -59v-19h-100v13q0 75 38.5 115.5t110.5 40.5q77 0 112.5 -40.5t35.5 -127.5v-205q0 -97 12 -147
zM171 81q55 0 55 85v87q-7 -9 -52 -38q-48 -30 -48 -79q0 -55 45 -55z" />
    <glyph glyph-name="acircumflex" unicode="&#xe2;" horiz-adv-x="372" 
d="M232 563l-51 75l-51 -75h-83l82 135h104l82 -135h-83zM344 0h-97q-6 12 -8 60q-30 -70 -108 -70q-51 0 -81 34.5t-30 93.5q0 60 28 98.5t95 71.5q55 27 69 39q14 14 14 34v10q0 58 -43 58q-48 0 -48 -59v-19h-100v13q0 75 38.5 115.5t110.5 40.5q77 0 112.5 -40.5
t35.5 -127.5v-205q0 -97 12 -147zM171 81q55 0 55 85v87q-7 -9 -52 -38q-48 -30 -48 -79q0 -55 45 -55z" />
    <glyph glyph-name="atilde" unicode="&#xe3;" horiz-adv-x="372" 
d="M138 611q-20 0 -37 -39l-54 32q37 84 91 84q25 0 54 -22q21 -15 32 -15q19 0 37 39l54 -32q-37 -84 -91 -84q-25 0 -54 22q-21 15 -32 15zM344 0h-97q-6 12 -8 60q-30 -70 -108 -70q-51 0 -81 34.5t-30 93.5q0 60 28 98.5t95 71.5q55 27 69 39q14 14 14 34v10
q0 58 -43 58q-48 0 -48 -59v-19h-100v13q0 75 38.5 115.5t110.5 40.5q77 0 112.5 -40.5t35.5 -127.5v-205q0 -97 12 -147zM171 81q55 0 55 85v87q-7 -9 -52 -38q-48 -30 -48 -79q0 -55 45 -55z" />
    <glyph glyph-name="adieresis" unicode="&#xe4;" horiz-adv-x="372" 
d="M63 689h95v-116h-95v116zM204 689h95v-116h-95v116zM344 0h-97q-6 12 -8 60q-30 -70 -108 -70q-51 0 -81 34.5t-30 93.5q0 60 28 98.5t95 71.5q55 27 69 39q14 14 14 34v10q0 58 -43 58q-48 0 -48 -59v-19h-100v13q0 75 38.5 115.5t110.5 40.5q77 0 112.5 -40.5
t35.5 -127.5v-205q0 -97 12 -147zM171 81q55 0 55 85v87q-7 -9 -52 -38q-48 -30 -48 -79q0 -55 45 -55z" />
    <glyph glyph-name="aring" unicode="&#xe5;" horiz-adv-x="372" 
d="M244 588q-25 -25 -63 -25q-39 0 -64 25q-25 26 -25 63t25 62q26 26 64 26q37 0 63 -26q26 -25 26 -62t-26 -63zM204 676q-9 10 -23 10t-23 -10q-9 -9 -9 -25t9 -26q9 -9 23 -9t23 9q9 10 9 26t-9 25zM344 0h-97q-6 12 -8 60q-30 -70 -108 -70q-51 0 -81 34.5t-30 93.5
q0 60 28 98.5t95 71.5q55 27 69 39q14 14 14 34v10q0 58 -43 58q-48 0 -48 -59v-19h-100v13q0 75 38.5 115.5t110.5 40.5q77 0 112.5 -40.5t35.5 -127.5v-205q0 -97 12 -147zM171 81q55 0 55 85v87q-7 -9 -52 -38q-48 -30 -48 -79q0 -55 45 -55z" />
    <glyph glyph-name="ae" unicode="&#xe6;" horiz-adv-x="569" 
d="M540 354v-122h-208v-86q0 -62 53 -62t53 62v19h102v-9q0 -80 -40.5 -123t-116.5 -43q-84 0 -124 52q-34 -52 -113 -52q-59 0 -92.5 34t-33.5 94t27.5 98t95.5 72q55 28 68 39q15 13 15 34v10q0 58 -43 58q-48 0 -48 -59v-19h-100v13q0 74 37 115t103 41q80 0 107 -52
q34 52 111 52q69 0 108 -43.5t39 -122.5zM332 364v-48h104v48q0 62 -52 62t-52 -62zM171 81q55 0 55 85v87q-7 -9 -52 -38q-48 -30 -48 -79q0 -55 45 -55z" />
    <glyph glyph-name="ccedilla" unicode="&#xe7;" horiz-adv-x="362" 
d="M337 356v-31h-102v41q0 60 -49 60t-49 -60v-222q0 -60 49 -60t49 60v51h102v-41q0 -71 -32.5 -113.5t-93.5 -49.5v-30q36 0 52.5 -12t16.5 -39q0 -38 -23.5 -51.5t-78.5 -13.5q-96 0 -96 62v10h74v-8q0 -24 22 -24q26 0 26 28q0 30 -37 30h-5v48q-64 7 -97.5 49
t-33.5 114v202q0 79 40 121.5t115 42.5q74 0 112.5 -43t38.5 -121z" />
    <glyph glyph-name="egrave" unicode="&#xe8;" horiz-adv-x="374" 
d="M177 698l70 -135h-83l-107 135h120zM345 354v-122h-208v-86q0 -62 53 -62t53 62v19h102v-9q0 -80 -40.5 -123t-116.5 -43t-116.5 43t-40.5 123v198q0 80 40.5 123t116.5 43t116.5 -43t40.5 -123zM137 364v-48h104v48q0 62 -52 62t-52 -62z" />
    <glyph glyph-name="eacute" unicode="&#xe9;" horiz-adv-x="374" 
d="M197 698h120l-107 -135h-83zM345 354v-122h-208v-86q0 -62 53 -62t53 62v19h102v-9q0 -80 -40.5 -123t-116.5 -43t-116.5 43t-40.5 123v198q0 80 40.5 123t116.5 43t116.5 -43t40.5 -123zM137 364v-48h104v48q0 62 -52 62t-52 -62z" />
    <glyph glyph-name="ecircumflex" unicode="&#xea;" horiz-adv-x="374" 
d="M238 563l-51 75l-51 -75h-83l82 135h104l82 -135h-83zM345 354v-122h-208v-86q0 -62 53 -62t53 62v19h102v-9q0 -80 -40.5 -123t-116.5 -43t-116.5 43t-40.5 123v198q0 80 40.5 123t116.5 43t116.5 -43t40.5 -123zM137 364v-48h104v48q0 62 -52 62t-52 -62z" />
    <glyph glyph-name="edieresis" unicode="&#xeb;" horiz-adv-x="374" 
d="M69 689h95v-116h-95v116zM210 689h95v-116h-95v116zM345 354v-122h-208v-86q0 -62 53 -62t53 62v19h102v-9q0 -80 -40.5 -123t-116.5 -43t-116.5 43t-40.5 123v198q0 80 40.5 123t116.5 43t116.5 -43t40.5 -123zM137 364v-48h104v48q0 62 -52 62t-52 -62z" />
    <glyph glyph-name="igrave" unicode="&#xec;" horiz-adv-x="188" 
d="M154 563h-83l-107 135h120zM147 0h-106v510h106v-510z" />
    <glyph glyph-name="iacute" unicode="&#xed;" horiz-adv-x="188" 
d="M117 563h-83l70 135h120zM147 0h-106v510h106v-510z" />
    <glyph glyph-name="icircumflex" unicode="&#xee;" horiz-adv-x="188" 
d="M43 563h-83l82 135h104l82 -135h-83l-51 75zM147 0h-106v510h106v-510z" />
    <glyph glyph-name="idieresis" unicode="&#xef;" horiz-adv-x="188" 
d="M71 573h-95v116h95v-116zM212 573h-95v116h95v-116zM147 0h-106v510h106v-510z" />
    <glyph glyph-name="eth" unicode="&#xf0;" horiz-adv-x="376" 
d="M255 700h91l-80 -77q76 -104 76 -312v-155q0 -80 -40.5 -123t-115.5 -43t-115.5 43t-40.5 123v175q0 149 116 149q56 0 87 -43q-7 61 -39 117l-39 -38h-91l93 90q-45 51 -113 94h138q25 -14 41 -30zM236 146v158q0 82 -55 82q-45 0 -45 -62v-178q0 -62 50 -62t50 62z" />
    <glyph glyph-name="ntilde" unicode="&#xf1;" horiz-adv-x="389" 
d="M152 611q-20 0 -37 -39l-54 32q37 84 91 84q25 0 54 -22q21 -15 32 -15q19 0 37 39l54 -32q-37 -84 -91 -84q-25 0 -54 22q-21 15 -32 15zM237 520q114 0 114 -149v-371h-106v359q0 67 -44 67q-54 0 -54 -82v-344h-106v510h92l2 -59q29 69 102 69z" />
    <glyph glyph-name="ograve" unicode="&#xf2;" horiz-adv-x="374" 
d="M247 563h-83l-107 135h120zM31 156v198q0 80 40.5 123t115.5 43t115.5 -43t40.5 -123v-198q0 -80 -40.5 -123t-115.5 -43t-115.5 43t-40.5 123zM237 146v218q0 62 -50 62t-50 -62v-218q0 -62 50 -62t50 62z" />
    <glyph glyph-name="oacute" unicode="&#xf3;" horiz-adv-x="374" 
d="M210 563h-83l70 135h120zM31 156v198q0 80 40.5 123t115.5 43t115.5 -43t40.5 -123v-198q0 -80 -40.5 -123t-115.5 -43t-115.5 43t-40.5 123zM237 146v218q0 62 -50 62t-50 -62v-218q0 -62 50 -62t50 62z" />
    <glyph glyph-name="ocircumflex" unicode="&#xf4;" horiz-adv-x="374" 
d="M136 563h-83l82 135h104l82 -135h-83l-51 75zM31 156v198q0 80 40.5 123t115.5 43t115.5 -43t40.5 -123v-198q0 -80 -40.5 -123t-115.5 -43t-115.5 43t-40.5 123zM237 146v218q0 62 -50 62t-50 -62v-218q0 -62 50 -62t50 62z" />
    <glyph glyph-name="otilde" unicode="&#xf5;" horiz-adv-x="374" 
d="M107 572l-54 32q37 84 91 84q25 0 54 -22q21 -15 32 -15q19 0 37 39l54 -32q-37 -84 -91 -84q-25 0 -54 22q-21 15 -32 15q-20 0 -37 -39zM31 156v198q0 80 40.5 123t115.5 43t115.5 -43t40.5 -123v-198q0 -80 -40.5 -123t-115.5 -43t-115.5 43t-40.5 123zM237 146v218
q0 62 -50 62t-50 -62v-218q0 -62 50 -62t50 62z" />
    <glyph glyph-name="odieresis" unicode="&#xf6;" horiz-adv-x="374" 
d="M164 573h-95v116h95v-116zM305 573h-95v116h95v-116zM31 156v198q0 80 40.5 123t115.5 43t115.5 -43t40.5 -123v-198q0 -80 -40.5 -123t-115.5 -43t-115.5 43t-40.5 123zM237 146v218q0 62 -50 62t-50 -62v-218q0 -62 50 -62t50 62z" />
    <glyph glyph-name="divide" unicode="&#xf7;" 
d="M252 399h-106v106h106v-106zM372 261h-346v78h346v-78zM252 95h-106v106h106v-106z" />
    <glyph glyph-name="oslash" unicode="&#xf8;" horiz-adv-x="374" 
d="M339 512l-24 -51q28 -41 28 -107v-198q0 -80 -40.5 -123t-115.5 -43q-49 0 -83 18l-17 -36l-52 26l24 51q-28 41 -28 107v198q0 80 40.5 123t115.5 43q49 0 83 -18l17 36zM137 364v-147l89 191q-10 18 -39 18q-50 0 -50 -62zM187 84q50 0 50 62v147l-89 -191
q10 -18 39 -18z" />
    <glyph glyph-name="ugrave" unicode="&#xf9;" horiz-adv-x="389" 
d="M183 698l70 -135h-83l-107 135h120zM242 166v344h106v-510h-92l-2 59q-28 -69 -102 -69q-114 0 -114 149v371h106v-359q0 -67 44 -67q54 0 54 82z" />
    <glyph glyph-name="uacute" unicode="&#xfa;" horiz-adv-x="389" 
d="M203 698h120l-107 -135h-83zM242 166v344h106v-510h-92l-2 59q-28 -69 -102 -69q-114 0 -114 149v371h106v-359q0 -67 44 -67q54 0 54 82z" />
    <glyph glyph-name="ucircumflex" unicode="&#xfb;" horiz-adv-x="389" 
d="M244 563l-51 75l-51 -75h-83l82 135h104l82 -135h-83zM242 166v344h106v-510h-92l-2 59q-28 -69 -102 -69q-114 0 -114 149v371h106v-359q0 -67 44 -67q54 0 54 82z" />
    <glyph glyph-name="udieresis" unicode="&#xfc;" horiz-adv-x="389" 
d="M75 689h95v-116h-95v116zM216 689h95v-116h-95v116zM242 166v344h106v-510h-92l-2 59q-28 -69 -102 -69q-114 0 -114 149v371h106v-359q0 -67 44 -67q54 0 54 82z" />
    <glyph glyph-name="yacute" unicode="&#xfd;" horiz-adv-x="359" 
d="M203 563h-83l70 135h120zM94 -165q-36 0 -57 10v90q18 -6 39 -6q27 0 39 9t17 34l2 7l-123 531h108l68 -351l61 351h99l-113 -554q-13 -65 -45.5 -93t-94.5 -28z" />
    <glyph glyph-name="thorn" unicode="&#xfe;" horiz-adv-x="387" 
d="M237 520q116 0 116 -149v-232q0 -149 -116 -149q-57 0 -90 47v-192h-106v855h106v-227q33 47 90 47zM247 146v218q0 62 -45 62q-55 0 -55 -82v-178q0 -82 55 -82q45 0 45 62z" />
    <glyph glyph-name="ydieresis" unicode="&#xff;" horiz-adv-x="359" 
d="M157 573h-95v116h95v-116zM298 573h-95v116h95v-116zM94 -165q-36 0 -57 10v90q18 -6 39 -6q27 0 39 9t17 34l2 7l-123 531h108l68 -351l61 351h99l-113 -554q-13 -65 -45.5 -93t-94.5 -28z" />
    <glyph glyph-name="Amacron" unicode="&#x100;" horiz-adv-x="399" 
d="M85 850h230v-78h-230v78zM388 0h-110l-19 137h-127l-19 -137h-102l114 700h149zM195 585l-49 -353h99z" />
    <glyph glyph-name="amacron" unicode="&#x101;" horiz-adv-x="372" 
d="M66 670h230v-78h-230v78zM344 0h-97q-6 12 -8 60q-30 -70 -108 -70q-51 0 -81 34.5t-30 93.5q0 60 28 98.5t95 71.5q55 27 69 39q14 14 14 34v10q0 58 -43 58q-48 0 -48 -59v-19h-100v13q0 75 38.5 115.5t110.5 40.5q77 0 112.5 -40.5t35.5 -127.5v-205q0 -97 12 -147z
M171 81q55 0 55 85v87q-7 -9 -52 -38q-48 -30 -48 -79q0 -55 45 -55z" />
    <glyph glyph-name="Abreve" unicode="&#x102;" horiz-adv-x="399" 
d="M200 751q-55 0 -85 31t-32 88h65q6 -48 52 -48q48 0 54 48h65q-2 -57 -32.5 -88t-86.5 -31zM388 0h-110l-19 137h-127l-19 -137h-102l114 700h149zM195 585l-49 -353h99z" />
    <glyph glyph-name="abreve" unicode="&#x103;" horiz-adv-x="372" 
d="M181 571q-55 0 -85 31t-32 88h65q6 -48 52 -48q48 0 54 48h65q-2 -57 -32.5 -88t-86.5 -31zM344 0h-97q-6 12 -8 60q-30 -70 -108 -70q-51 0 -81 34.5t-30 93.5q0 60 28 98.5t95 71.5q55 27 69 39q14 14 14 34v10q0 58 -43 58q-48 0 -48 -59v-19h-100v13q0 75 38.5 115.5
t110.5 40.5q77 0 112.5 -40.5t35.5 -127.5v-205q0 -97 12 -147zM171 81q55 0 55 85v87q-7 -9 -52 -38q-48 -30 -48 -79q0 -55 45 -55z" />
    <glyph glyph-name="Aogonek" unicode="&#x104;" horiz-adv-x="399" 
d="M317 -59q0 -35 39 -35q10 0 32 6v-56q-30 -11 -61 -11q-95 0 -95 66q0 54 68 89h-22l-19 137h-127l-19 -137h-102l114 700h149l114 -700h-41q-30 -26 -30 -59zM195 585l-49 -353h99z" />
    <glyph glyph-name="aogonek" unicode="&#x105;" horiz-adv-x="372" 
d="M272 -59q0 -35 39 -35q9 0 32 6v-56q-30 -11 -61 -11q-95 0 -95 66q0 54 68 89h-8q-6 12 -8 60q-30 -70 -108 -70q-51 0 -81 34.5t-30 93.5q0 60 28 98.5t95 71.5q55 27 69 39q14 14 14 34v10q0 58 -43 58q-48 0 -48 -59v-19h-100v13q0 75 38.5 115.5t110.5 40.5
q77 0 112.5 -40.5t35.5 -127.5v-205q0 -97 12 -147h-42q-30 -26 -30 -59zM171 81q55 0 55 85v87q-7 -9 -52 -38q-48 -30 -48 -79q0 -55 45 -55z" />
    <glyph glyph-name="Cacute" unicode="&#x106;" horiz-adv-x="381" 
d="M217 743h-83l70 135h120zM33 162v376q0 82 42 127t120 45t120 -45t42 -127v-74h-104v81q0 65 -55 65t-55 -65v-391q0 -64 55 -64t55 64v102h104v-94q0 -82 -42 -127t-120 -45t-120 45t-42 127z" />
    <glyph glyph-name="cacute" unicode="&#x107;" horiz-adv-x="362" 
d="M207 563h-83l70 135h120zM31 154v202q0 79 40 121.5t115 42.5q74 0 112.5 -43t38.5 -121v-31h-102v41q0 60 -49 60t-49 -60v-222q0 -60 49 -60t49 60v51h102v-41q0 -78 -38.5 -121t-112.5 -43q-75 0 -115 42.5t-40 121.5z" />
    <glyph glyph-name="Ccircumflex" unicode="&#x108;" horiz-adv-x="381" 
d="M143 743h-83l82 135h104l82 -135h-83l-51 75zM33 162v376q0 82 42 127t120 45t120 -45t42 -127v-74h-104v81q0 65 -55 65t-55 -65v-391q0 -64 55 -64t55 64v102h104v-94q0 -82 -42 -127t-120 -45t-120 45t-42 127z" />
    <glyph glyph-name="ccircumflex" unicode="&#x109;" horiz-adv-x="362" 
d="M133 563h-83l82 135h104l82 -135h-83l-51 75zM31 154v202q0 79 40 121.5t115 42.5q74 0 112.5 -43t38.5 -121v-31h-102v41q0 60 -49 60t-49 -60v-222q0 -60 49 -60t49 60v51h102v-41q0 -78 -38.5 -121t-112.5 -43q-75 0 -115 42.5t-40 121.5z" />
    <glyph glyph-name="Cdotaccent" unicode="&#x10a;" horiz-adv-x="381" 
d="M247 753h-106v116h106v-116zM33 162v376q0 82 42 127t120 45t120 -45t42 -127v-74h-104v81q0 65 -55 65t-55 -65v-391q0 -64 55 -64t55 64v102h104v-94q0 -82 -42 -127t-120 -45t-120 45t-42 127z" />
    <glyph glyph-name="cdotaccent" unicode="&#x10b;" horiz-adv-x="362" 
d="M237 573h-106v116h106v-116zM31 154v202q0 79 40 121.5t115 42.5q74 0 112.5 -43t38.5 -121v-31h-102v41q0 60 -49 60t-49 -60v-222q0 -60 49 -60t49 60v51h102v-41q0 -78 -38.5 -121t-112.5 -43q-75 0 -115 42.5t-40 121.5z" />
    <glyph glyph-name="Ccaron" unicode="&#x10c;" horiz-adv-x="381" 
d="M246 743h-104l-82 135h83l51 -75l51 75h83zM33 162v376q0 82 42 127t120 45t120 -45t42 -127v-74h-104v81q0 65 -55 65t-55 -65v-391q0 -64 55 -64t55 64v102h104v-94q0 -82 -42 -127t-120 -45t-120 45t-42 127z" />
    <glyph glyph-name="ccaron" unicode="&#x10d;" horiz-adv-x="362" 
d="M236 563h-104l-82 135h83l51 -75l51 75h83zM31 154v202q0 79 40 121.5t115 42.5q74 0 112.5 -43t38.5 -121v-31h-102v41q0 60 -49 60t-49 -60v-222q0 -60 49 -60t49 60v51h102v-41q0 -78 -38.5 -121t-112.5 -43q-75 0 -115 42.5t-40 121.5z" />
    <glyph glyph-name="Dcaron" unicode="&#x10e;" horiz-adv-x="406" 
d="M246 743h-104l-82 135h83l51 -75l51 75h83zM209 0h-168v700h168q164 0 164 -173v-354q0 -173 -164 -173zM151 600v-500h56q56 0 56 68v364q0 68 -56 68h-56z" />
    <glyph glyph-name="dcaron" unicode="&#x10f;" horiz-adv-x="468" 
d="M240 700h106v-553q0 -97 12 -147h-97q-6 12 -9 60q-28 -70 -103 -70q-115 0 -115 149v232q0 149 115 149q58 0 91 -47v227zM376 598v102h102v-91l-46 -115h-45l29 104h-40zM185 84q55 0 55 82v178q0 82 -55 82q-45 0 -45 -62v-218q0 -62 45 -62z" />
    <glyph glyph-name="Dcroat" unicode="&#x110;" horiz-adv-x="424" 
d="M59 700h168q164 0 164 -173v-354q0 -173 -164 -173h-168v318h-47v94h47v288zM281 168v364q0 68 -56 68h-56v-188h57v-94h-57v-218h56q56 0 56 68z" />
    <glyph glyph-name="dslash" unicode="&#x111;" horiz-adv-x="387" 
d="M387 639v-76h-41v-416q0 -97 12 -147h-97q-6 12 -9 60q-28 -70 -103 -70q-115 0 -115 149v232q0 149 115 149q58 0 91 -47v90h-67v76h67v61h106v-61h41zM185 84q55 0 55 82v178q0 82 -55 82q-45 0 -45 -62v-218q0 -62 45 -62z" />
    <glyph glyph-name="Emacron" unicode="&#x112;" horiz-adv-x="359" 
d="M306 772h-230v78h230v-78zM341 0h-300v700h300v-100h-190v-185h151v-100h-151v-215h190v-100z" />
    <glyph glyph-name="emacron" unicode="&#x113;" horiz-adv-x="374" 
d="M72 670h230v-78h-230v78zM345 354v-122h-208v-86q0 -62 53 -62t53 62v19h102v-9q0 -80 -40.5 -123t-116.5 -43t-116.5 43t-40.5 123v198q0 80 40.5 123t116.5 43t116.5 -43t40.5 -123zM137 364v-48h104v48q0 62 -52 62t-52 -62z" />
    <glyph glyph-name="Ebreve" unicode="&#x114;" horiz-adv-x="359" 
d="M191 751q-55 0 -85 31t-32 88h65q6 -48 52 -48q48 0 54 48h65q-2 -57 -32.5 -88t-86.5 -31zM341 0h-300v700h300v-100h-190v-185h151v-100h-151v-215h190v-100z" />
    <glyph glyph-name="ebreve" unicode="&#x115;" horiz-adv-x="374" 
d="M187 571q-55 0 -85 31t-32 88h65q6 -48 52 -48q48 0 54 48h65q-2 -57 -32.5 -88t-86.5 -31zM345 354v-122h-208v-86q0 -62 53 -62t53 62v19h102v-9q0 -80 -40.5 -123t-116.5 -43t-116.5 43t-40.5 123v198q0 80 40.5 123t116.5 43t116.5 -43t40.5 -123zM137 364v-48h104
v48q0 62 -52 62t-52 -62z" />
    <glyph glyph-name="Edotaccent" unicode="&#x116;" horiz-adv-x="359" 
d="M244 753h-106v116h106v-116zM341 0h-300v700h300v-100h-190v-185h151v-100h-151v-215h190v-100z" />
    <glyph glyph-name="edotaccent" unicode="&#x117;" horiz-adv-x="374" 
d="M134 689h106v-116h-106v116zM345 354v-122h-208v-86q0 -62 53 -62t53 62v19h102v-9q0 -80 -40.5 -123t-116.5 -43t-116.5 43t-40.5 123v198q0 80 40.5 123t116.5 43t116.5 -43t40.5 -123zM137 364v-48h104v48q0 62 -52 62t-52 -62z" />
    <glyph glyph-name="Eogonek" unicode="&#x118;" horiz-adv-x="359" 
d="M341 700v-100h-190v-185h151v-100h-151v-215h190v-100h-41q-30 -26 -30 -59q0 -35 39 -35q9 0 32 6v-56q-30 -11 -61 -11q-95 0 -95 66q0 54 68 89h-212v700h300z" />
    <glyph glyph-name="eogonek" unicode="&#x119;" horiz-adv-x="374" 
d="M345 354v-122h-208v-86q0 -62 53 -62t53 62v19h102v-9q0 -91 -52 -134q-35 -37 -35 -81q0 -35 39 -35q9 0 32 6v-56q-30 -11 -61 -11q-95 0 -95 66q0 50 56 83q-15 -4 -41 -4q-76 0 -116.5 43t-40.5 123v198q0 80 40.5 123t116.5 43t116.5 -43t40.5 -123zM137 364v-48
h104v48q0 62 -52 62t-52 -62z" />
    <glyph glyph-name="Ecaron" unicode="&#x11a;" horiz-adv-x="359" 
d="M243 743h-104l-82 135h83l51 -75l51 75h83zM341 0h-300v700h300v-100h-190v-185h151v-100h-151v-215h190v-100z" />
    <glyph glyph-name="ecaron" unicode="&#x11b;" horiz-adv-x="374" 
d="M321 698l-82 -135h-104l-82 135h83l51 -75l51 75h83zM345 354v-122h-208v-86q0 -62 53 -62t53 62v19h102v-9q0 -80 -40.5 -123t-116.5 -43t-116.5 43t-40.5 123v198q0 80 40.5 123t116.5 43t116.5 -43t40.5 -123zM137 364v-48h104v48q0 62 -52 62t-52 -62z" />
    <glyph glyph-name="Gcircumflex" unicode="&#x11c;" horiz-adv-x="392" 
d="M145 743h-83l82 135h104l82 -135h-83l-51 75zM33 166v368q0 85 42 130.5t122 45.5t122 -45.5t42 -130.5v-60h-104v67q0 69 -57 69t-57 -69v-383q0 -68 57 -68t57 68v137h-55v100h159v-229q0 -85 -42 -130.5t-122 -45.5t-122 45.5t-42 130.5z" />
    <glyph glyph-name="gcircumflex" unicode="&#x11d;" horiz-adv-x="385" 
d="M234 563l-51 75l-51 -75h-83l82 135h104l82 -135h-83zM250 450l2 60h92v-517q0 -80 -37 -119t-120 -39q-75 0 -113.5 35t-38.5 102v3h102v-8q0 -45 48 -45q53 0 53 63v77q-33 -47 -90 -47q-116 0 -116 149v207q0 149 116 149q74 0 102 -70zM183 109q55 0 55 82v153
q0 82 -55 82q-45 0 -45 -62v-193q0 -62 45 -62z" />
    <glyph glyph-name="Gbreve" unicode="&#x11e;" horiz-adv-x="392" 
d="M196 751q-55 0 -85 31t-32 88h65q6 -48 52 -48q48 0 54 48h65q-2 -57 -32.5 -88t-86.5 -31zM33 166v368q0 85 42 130.5t122 45.5t122 -45.5t42 -130.5v-60h-104v67q0 69 -57 69t-57 -69v-383q0 -68 57 -68t57 68v137h-55v100h159v-229q0 -85 -42 -130.5t-122 -45.5
t-122 45.5t-42 130.5z" />
    <glyph glyph-name="gbreve" unicode="&#x11f;" horiz-adv-x="385" 
d="M183 571q-55 0 -85 31t-32 88h65q6 -48 52 -48q48 0 54 48h65q-2 -57 -32.5 -88t-86.5 -31zM250 450l2 60h92v-517q0 -80 -37 -119t-120 -39q-75 0 -113.5 35t-38.5 102v3h102v-8q0 -45 48 -45q53 0 53 63v77q-33 -47 -90 -47q-116 0 -116 149v207q0 149 116 149
q74 0 102 -70zM183 109q55 0 55 82v153q0 82 -55 82q-45 0 -45 -62v-193q0 -62 45 -62z" />
    <glyph glyph-name="Gdotaccent" unicode="&#x120;" horiz-adv-x="392" 
d="M249 753h-106v116h106v-116zM33 166v368q0 85 42 130.5t122 45.5t122 -45.5t42 -130.5v-60h-104v67q0 69 -57 69t-57 -69v-383q0 -68 57 -68t57 68v137h-55v100h159v-229q0 -85 -42 -130.5t-122 -45.5t-122 45.5t-42 130.5z" />
    <glyph glyph-name="gdotaccent" unicode="&#x121;" horiz-adv-x="385" 
d="M130 689h106v-116h-106v116zM250 450l2 60h92v-517q0 -80 -37 -119t-120 -39q-75 0 -113.5 35t-38.5 102v3h102v-8q0 -45 48 -45q53 0 53 63v77q-33 -47 -90 -47q-116 0 -116 149v207q0 149 116 149q74 0 102 -70zM183 109q55 0 55 82v153q0 82 -55 82q-45 0 -45 -62
v-193q0 -62 45 -62z" />
    <glyph glyph-name="uni0122" unicode="&#x122;" horiz-adv-x="392" 
d="M33 166v368q0 85 42 130.5t122 45.5t122 -45.5t42 -130.5v-60h-104v67q0 69 -57 69t-57 -69v-383q0 -68 57 -68t57 68v137h-55v100h159v-229q0 -85 -42 -130.5t-122 -45.5t-122 45.5t-42 130.5zM193 -189h-39l40 54h-50v92h106v-82z" />
    <glyph glyph-name="uni0123" unicode="&#x123;" horiz-adv-x="385" 
d="M186 665h50v-92h-106v82l50 64h39zM250 450l2 60h92v-517q0 -80 -37 -119t-120 -39q-75 0 -113.5 35t-38.5 102v3h102v-8q0 -45 48 -45q53 0 53 63v77q-33 -47 -90 -47q-116 0 -116 149v207q0 149 116 149q74 0 102 -70zM183 109q55 0 55 82v153q0 82 -55 82
q-45 0 -45 -62v-193q0 -62 45 -62z" />
    <glyph glyph-name="Hcircumflex" unicode="&#x124;" horiz-adv-x="420" 
d="M159 743h-83l82 135h104l82 -135h-83l-51 75zM151 0h-110v700h110v-285h118v285h110v-700h-110v315h-118v-315z" />
    <glyph glyph-name="hcircumflex" unicode="&#x125;" horiz-adv-x="389" 
d="M145 743l-51 75l-51 -75h-83l82 135h104l82 -135h-83zM237 520q114 0 114 -149v-371h-106v359q0 67 -44 67q-54 0 -54 -82v-344h-106v700h106v-226q31 46 90 46z" />
    <glyph glyph-name="Hbar" unicode="&#x126;" horiz-adv-x="442" 
d="M390 603h40v-90h-40v-513h-110v315h-118v-315h-110v513h-40v90h40v97h110v-97h118v97h110v-97zM162 415h118v98h-118v-98z" />
    <glyph glyph-name="hbar" unicode="&#x127;" horiz-adv-x="389" 
d="M237 520q114 0 114 -149v-371h-106v359q0 67 -44 67q-54 0 -54 -82v-344h-106v563h-41v76h41v61h106v-61h67v-76h-67v-89q31 46 90 46z" />
    <glyph glyph-name="Itilde" unicode="&#x128;" horiz-adv-x="192" 
d="M16 752l-54 32q37 84 91 84q25 0 54 -22q21 -15 32 -15q19 0 37 39l54 -32q-38 -84 -91 -84q-25 0 -54 22q-21 15 -32 15q-21 0 -37 -39zM151 0h-110v700h110v-700z" />
    <glyph glyph-name="itilde" unicode="&#x129;" horiz-adv-x="188" 
d="M14 572l-54 32q37 84 91 84q25 0 54 -22q21 -15 32 -15q19 0 37 39l54 -32q-38 -84 -91 -84q-25 0 -54 22q-21 15 -32 15q-21 0 -37 -39zM147 0h-106v510h106v-510z" />
    <glyph glyph-name="Imacron" unicode="&#x12a;" horiz-adv-x="192" 
d="M211 772h-230v78h230v-78zM151 0h-110v700h110v-700z" />
    <glyph glyph-name="imacron" unicode="&#x12b;" horiz-adv-x="188" 
d="M209 592h-230v78h230v-78zM147 0h-106v510h106v-510z" />
    <glyph glyph-name="Ibreve" unicode="&#x12c;" horiz-adv-x="192" 
d="M96 751q-55 0 -85 31t-32 88h65q6 -48 52 -48q48 0 54 48h65q-2 -57 -32.5 -88t-86.5 -31zM151 0h-110v700h110v-700z" />
    <glyph glyph-name="ibreve" unicode="&#x12d;" horiz-adv-x="188" 
d="M94 571q-55 0 -85 31t-32 88h65q6 -48 52 -48q48 0 54 48h65q-2 -57 -32.5 -88t-86.5 -31zM147 0h-106v510h106v-510z" />
    <glyph glyph-name="Iogonek" unicode="&#x12e;" horiz-adv-x="192" 
d="M141 -94q9 0 32 6v-56q-30 -11 -61 -11q-95 0 -95 66q0 56 59 89h-35v700h110v-700h-28q-21 -22 -21 -59q0 -35 39 -35z" />
    <glyph glyph-name="iogonek" unicode="&#x12f;" horiz-adv-x="188" 
d="M41 689h106v-116h-106v116zM139 -94q9 0 32 6v-56q-30 -11 -61 -11q-95 0 -95 66q0 56 59 89h-33v510h106v-510h-26q-21 -22 -21 -59q0 -35 39 -35z" />
    <glyph glyph-name="Idot" unicode="&#x130;" horiz-adv-x="192" 
d="M149 753h-106v116h106v-116zM151 0h-110v700h110v-700z" />
    <glyph glyph-name="dotlessi" unicode="&#x131;" horiz-adv-x="188" 
d="M147 0h-106v510h106v-510z" />
    <glyph glyph-name="IJ" unicode="&#x132;" horiz-adv-x="451" 
d="M151 0h-110v700h110v-700zM254 -4q-32 0 -51 4v100q15 -4 36 -4q65 0 65 67v537h110v-534q0 -170 -160 -170z" />
    <glyph glyph-name="ij" unicode="&#x133;" horiz-adv-x="376" 
d="M147 573h-106v116h106v-116zM335 573h-106v116h106v-116zM147 0h-106v510h106v-510zM226 -165q-33 0 -53 10v89q17 -5 30 -5q26 0 26 28v553h106v-564q0 -111 -109 -111z" />
    <glyph glyph-name="Jcircumflex" unicode="&#x134;" horiz-adv-x="259" 
d="M111 743h-83l82 135h104l82 -135h-83l-51 75zM62 -4q-32 0 -51 4v100q15 -4 36 -4q65 0 65 67v537h110v-534q0 -170 -160 -170z" />
    <glyph glyph-name="jcircumflex" unicode="&#x135;" horiz-adv-x="188" 
d="M43 563h-83l82 135h104l82 -135h-83l-51 75zM38 -165q-33 0 -53 10v89q17 -5 30 -5q26 0 26 28v553h106v-564q0 -111 -109 -111z" />
    <glyph glyph-name="uni0136" unicode="&#x136;" horiz-adv-x="414" 
d="M401 700l-131 -257l133 -443h-115l-92 308l-45 -88v-220h-110v700h110v-301l138 301h112zM214 -135h-50v92h106v-82l-57 -64h-39z" />
    <glyph glyph-name="uni0137" unicode="&#x137;" horiz-adv-x="394" 
d="M378 510l-118 -188l124 -322h-114l-81 214l-42 -67v-147h-106v700h106v-404l118 214h113zM205 -135h-50v92h106v-82l-57 -64h-39z" />
    <glyph glyph-name="kgreenlandic" unicode="&#x138;" horiz-adv-x="394" 
d="M384 0h-114l-81 214l-42 -67v-147h-106v510h106v-214l118 214h113l-118 -188z" />
    <glyph glyph-name="Lacute" unicode="&#x139;" horiz-adv-x="344" 
d="M129 743h-83l70 135h120zM332 0h-291v700h110v-600h181v-100z" />
    <glyph glyph-name="lacute" unicode="&#x13a;" horiz-adv-x="188" 
d="M117 743h-83l70 135h120zM147 0h-106v700h106v-700z" />
    <glyph glyph-name="uni013B" unicode="&#x13b;" horiz-adv-x="344" 
d="M332 0h-291v700h110v-600h181v-100zM183 -189h-39l40 54h-50v92h106v-82z" />
    <glyph glyph-name="uni013C" unicode="&#x13c;" horiz-adv-x="188" 
d="M147 0h-106v700h106v-700zM90 -189h-39l40 54h-50v92h106v-82z" />
    <glyph glyph-name="Lcaron" unicode="&#x13d;" horiz-adv-x="344" 
d="M332 0h-291v700h110v-600h181v-100zM265 494h-45l29 104h-40v102h102v-91z" />
    <glyph glyph-name="lcaron" unicode="&#x13e;" horiz-adv-x="269" 
d="M147 0h-106v700h106v-700zM233 494h-45l29 104h-40v102h102v-91z" />
    <glyph glyph-name="Ldot" unicode="&#x13f;" horiz-adv-x="344" 
d="M332 0h-291v700h110v-600h181v-100zM320 337h-106v106h106v-106z" />
    <glyph glyph-name="ldot" unicode="&#x140;" horiz-adv-x="300" 
d="M147 0h-106v700h106v-700zM301 295h-110v110h110v-110z" />
    <glyph glyph-name="Lslash" unicode="&#x141;" horiz-adv-x="368" 
d="M175 278v-178h181v-100h-291v160l-51 -55v120l51 55v420h110v-302l119 127v-120z" />
    <glyph glyph-name="lslash" unicode="&#x142;" horiz-adv-x="223" 
d="M163 472l45 48v-110l-45 -48v-362h-106v249l-42 -45v110l42 45v341h106v-228z" />
    <glyph glyph-name="Nacute" unicode="&#x143;" horiz-adv-x="427" 
d="M237 743h-83l70 135h120zM139 0h-98v700h136l111 -419v419h98v-700h-111l-136 511v-511z" />
    <glyph glyph-name="nacute" unicode="&#x144;" horiz-adv-x="389" 
d="M205 698h120l-107 -135h-83zM237 520q114 0 114 -149v-371h-106v359q0 67 -44 67q-54 0 -54 -82v-344h-106v510h92l2 -59q29 69 102 69z" />
    <glyph glyph-name="uni0145" unicode="&#x145;" horiz-adv-x="427" 
d="M139 0h-98v700h136l111 -419v419h98v-700h-111l-136 511v-511zM210 -189h-39l40 54h-50v92h106v-82z" />
    <glyph glyph-name="uni0146" unicode="&#x146;" horiz-adv-x="389" 
d="M237 520q114 0 114 -149v-371h-106v359q0 67 -44 67q-54 0 -54 -82v-344h-106v510h92l2 -59q29 69 102 69zM192 -135h-50v92h106v-82l-57 -64h-39z" />
    <glyph glyph-name="Ncaron" unicode="&#x147;" horiz-adv-x="427" 
d="M266 743h-104l-82 135h83l51 -75l51 75h83zM139 0h-98v700h136l111 -419v419h98v-700h-111l-136 511v-511z" />
    <glyph glyph-name="ncaron" unicode="&#x148;" horiz-adv-x="389" 
d="M329 698l-82 -135h-104l-82 135h83l51 -75l51 75h83zM237 520q114 0 114 -149v-371h-106v359q0 67 -44 67q-54 0 -54 -82v-344h-106v510h92l2 -59q29 69 102 69z" />
    <glyph glyph-name="napostrophe" unicode="&#x149;" horiz-adv-x="389" 
d="M-53 700h106v-95l-48 -111h-45l29 100h-42v106zM237 520q114 0 114 -149v-371h-106v359q0 67 -44 67q-54 0 -54 -82v-344h-106v510h92l2 -59q29 69 102 69z" />
    <glyph glyph-name="Eng" unicode="&#x14a;" horiz-adv-x="427" 
d="M226 -165q-32 0 -51 4v90q15 -4 36 -4q65 0 65 67q0 30 -6 54l-131 477v-523h-98v700h136l111 -403v403h98v-695q0 -170 -160 -170z" />
    <glyph glyph-name="eng" unicode="&#x14b;" horiz-adv-x="391" 
d="M237 520q116 0 116 -149v-412q0 -124 -125 -124q-34 0 -58 10v90q20 -6 36 -6q22 0 31.5 10t9.5 34v391q0 62 -45 62q-55 0 -55 -82v-344h-106v510h92l2 -59q29 69 102 69z" />
    <glyph glyph-name="Omacron" unicode="&#x14c;" 
d="M315 772h-230v78h230v-78zM33 166v368q0 84 43 130t124 46t124 -46t43 -130v-368q0 -84 -43 -130t-124 -46t-124 46t-43 130zM257 159v382q0 69 -57 69t-57 -69v-382q0 -69 57 -69t57 69z" />
    <glyph glyph-name="omacron" unicode="&#x14d;" horiz-adv-x="374" 
d="M302 592h-230v78h230v-78zM31 156v198q0 80 40.5 123t115.5 43t115.5 -43t40.5 -123v-198q0 -80 -40.5 -123t-115.5 -43t-115.5 43t-40.5 123zM237 146v218q0 62 -50 62t-50 -62v-218q0 -62 50 -62t50 62z" />
    <glyph glyph-name="Obreve" unicode="&#x14e;" 
d="M200 751q-55 0 -85 31t-32 88h65q6 -48 52 -48q48 0 54 48h65q-2 -57 -32.5 -88t-86.5 -31zM33 166v368q0 84 43 130t124 46t124 -46t43 -130v-368q0 -84 -43 -130t-124 -46t-124 46t-43 130zM257 159v382q0 69 -57 69t-57 -69v-382q0 -69 57 -69t57 69z" />
    <glyph glyph-name="obreve" unicode="&#x14f;" horiz-adv-x="374" 
d="M187 571q-55 0 -85 31t-32 88h65q6 -48 52 -48q48 0 54 48h65q-2 -57 -32.5 -88t-86.5 -31zM31 156v198q0 80 40.5 123t115.5 43t115.5 -43t40.5 -123v-198q0 -80 -40.5 -123t-115.5 -43t-115.5 43t-40.5 123zM237 146v218q0 62 -50 62t-50 -62v-218q0 -62 50 -62t50 62z
" />
    <glyph glyph-name="Ohungarumlaut" unicode="&#x150;" 
d="M144 743h-74l70 135h111zM293 743h-74l70 135h111zM33 166v368q0 84 43 130t124 46t124 -46t43 -130v-368q0 -84 -43 -130t-124 -46t-124 46t-43 130zM257 159v382q0 69 -57 69t-57 -69v-382q0 -69 57 -69t57 69z" />
    <glyph glyph-name="ohungarumlaut" unicode="&#x151;" horiz-adv-x="374" 
d="M131 563h-74l70 135h111zM280 563h-74l70 135h111zM31 156v198q0 80 40.5 123t115.5 43t115.5 -43t40.5 -123v-198q0 -80 -40.5 -123t-115.5 -43t-115.5 43t-40.5 123zM237 146v218q0 62 -50 62t-50 -62v-218q0 -62 50 -62t50 62z" />
    <glyph glyph-name="OE" unicode="&#x152;" horiz-adv-x="573" 
d="M555 0h-358q-164 0 -164 173v354q0 173 164 173h358v-100h-190v-185h151v-100h-151v-215h190v-100zM199 100h56v500h-56q-56 0 -56 -68v-364q0 -68 56 -68z" />
    <glyph glyph-name="oe" unicode="&#x153;" horiz-adv-x="582" 
d="M406 520q69 0 108 -43.5t39 -122.5v-122h-208v-86q0 -62 53 -62t53 62v19h102v-9q0 -79 -39 -122.5t-108 -43.5q-82 0 -114 57q-32 -57 -114 -57q-69 0 -108 43.5t-39 122.5v198q0 79 39 122.5t108 43.5q82 0 114 -57q32 57 114 57zM239 146v218q0 62 -51 62t-51 -62
v-218q0 -62 51 -62t51 62zM345 364v-48h104v48q0 62 -52 62t-52 -62z" />
    <glyph glyph-name="Racute" unicode="&#x154;" horiz-adv-x="403" 
d="M214 743h-83l70 135h120zM151 0h-110v700h163q84 0 123.5 -39.5t39.5 -121.5v-43q0 -110 -72 -138v-2q73 -22 73 -148v-123q0 -57 12 -85h-112q-10 29 -10 86v128q0 48 -15.5 67t-53.5 19h-38v-300zM151 600v-200h40q34 0 50 17.5t16 56.5v54q0 72 -56 72h-50z" />
    <glyph glyph-name="racute" unicode="&#x155;" horiz-adv-x="272" 
d="M156 698h120l-107 -135h-83zM133 510l2 -86q21 96 99 96q18 0 30 -6v-103q-12 3 -27 3q-90 0 -90 -120v-294h-106v510h92z" />
    <glyph glyph-name="uni0156" unicode="&#x156;" horiz-adv-x="403" 
d="M151 0h-110v700h163q84 0 123.5 -39.5t39.5 -121.5v-43q0 -110 -72 -138v-2q73 -22 73 -148v-123q0 -57 12 -85h-112q-10 29 -10 86v128q0 48 -15.5 67t-53.5 19h-38v-300zM151 600v-200h40q34 0 50 17.5t16 56.5v54q0 72 -56 72h-50zM203 -189h-39l40 54h-50v92h106v-82
z" />
    <glyph glyph-name="uni0157" unicode="&#x157;" horiz-adv-x="272" 
d="M234 520q18 0 30 -6v-103q-12 3 -27 3q-90 0 -90 -120v-294h-106v510h92l2 -86q21 96 99 96zM91 -135h-50v92h106v-82l-57 -64h-39z" />
    <glyph glyph-name="Rcaron" unicode="&#x158;" horiz-adv-x="403" 
d="M243 743h-104l-82 135h83l51 -75l51 75h83zM151 0h-110v700h163q84 0 123.5 -39.5t39.5 -121.5v-43q0 -110 -72 -138v-2q73 -22 73 -148v-123q0 -57 12 -85h-112q-10 29 -10 86v128q0 48 -15.5 67t-53.5 19h-38v-300zM151 600v-200h40q34 0 50 17.5t16 56.5v54
q0 72 -56 72h-50z" />
    <glyph glyph-name="rcaron" unicode="&#x159;" horiz-adv-x="272" 
d="M280 698l-82 -135h-104l-82 135h83l51 -75l51 75h83zM133 510l2 -86q21 96 99 96q18 0 30 -6v-103q-12 3 -27 3q-90 0 -90 -120v-294h-106v510h92z" />
    <glyph glyph-name="Sacute" unicode="&#x15a;" horiz-adv-x="371" 
d="M208 743h-83l70 135h120zM184 -10q-80 0 -121 45.5t-41 130.5v40h104v-48q0 -68 57 -68q58 0 58 70q0 43 -21 76q-20 33 -75 81q-68 61 -96 109q-27 50 -27 110q0 84 42 129t122 45q78 0 119 -45.5t41 -130.5v-29h-104v36q0 69 -55 69q-56 0 -56 -67q0 -39 21 -70
q22 -34 76 -80q69 -60 95 -110q27 -49 27 -115q0 -86 -42.5 -132t-123.5 -46z" />
    <glyph glyph-name="sacute" unicode="&#x15b;" horiz-adv-x="342" 
d="M191 563h-83l70 135h120zM175 -10q-73 0 -113.5 41t-40.5 115v16h102v-19q0 -62 47 -62q46 0 46 55q0 18 -12 33q-11 15 -22 23t-40 25q-34 19 -42 26q-23 18 -35 29q-39 39 -39 107q0 66 37.5 103.5t105.5 37.5q66 0 104.5 -40t38.5 -109v-11h-100v14q0 55 -42 55
q-41 0 -41 -48q0 -26 18 -45.5t60 -41.5q49 -27 76 -54q38 -35 38 -102q0 -70 -38 -109t-108 -39z" />
    <glyph glyph-name="Scircumflex" unicode="&#x15c;" horiz-adv-x="371" 
d="M134 743h-83l82 135h104l82 -135h-83l-51 75zM184 -10q-80 0 -121 45.5t-41 130.5v40h104v-48q0 -68 57 -68q58 0 58 70q0 43 -21 76q-20 33 -75 81q-68 61 -96 109q-27 50 -27 110q0 84 42 129t122 45q78 0 119 -45.5t41 -130.5v-29h-104v36q0 69 -55 69q-56 0 -56 -67
q0 -39 21 -70q22 -34 76 -80q69 -60 95 -110q27 -49 27 -115q0 -86 -42.5 -132t-123.5 -46z" />
    <glyph glyph-name="scircumflex" unicode="&#x15d;" horiz-adv-x="342" 
d="M117 563h-83l82 135h104l82 -135h-83l-51 75zM175 -10q-73 0 -113.5 41t-40.5 115v16h102v-19q0 -62 47 -62q46 0 46 55q0 18 -12 33q-11 15 -22 23t-40 25q-34 19 -42 26q-23 18 -35 29q-39 39 -39 107q0 66 37.5 103.5t105.5 37.5q66 0 104.5 -40t38.5 -109v-11h-100
v14q0 55 -42 55q-41 0 -41 -48q0 -26 18 -45.5t60 -41.5q49 -27 76 -54q38 -35 38 -102q0 -70 -38 -109t-108 -39z" />
    <glyph glyph-name="Scedilla" unicode="&#x15e;" horiz-adv-x="371" 
d="M350 168q0 -78 -36 -124t-104 -53v-30q36 0 52.5 -12t16.5 -39q0 -38 -23.5 -51.5t-78.5 -13.5q-96 0 -96 62v10h74v-8q0 -24 22 -24q26 0 26 28q0 30 -37 30h-5v48q-139 13 -139 175v40h104v-48q0 -68 57 -68q58 0 58 70q0 43 -21 76q-20 33 -75 81q-68 61 -96 109
q-27 50 -27 110q0 84 42 129t122 45q78 0 119 -45.5t41 -130.5v-29h-104v36q0 69 -55 69q-56 0 -56 -67q0 -39 21 -70q22 -34 76 -80q69 -60 95 -110q27 -49 27 -115z" />
    <glyph glyph-name="scedilla" unicode="&#x15f;" horiz-adv-x="342" 
d="M321 138q0 -64 -32.5 -102.5t-92.5 -44.5v-30q36 0 52.5 -12t16.5 -39q0 -38 -23.5 -51.5t-78.5 -13.5q-96 0 -96 62v10h74v-8q0 -24 22 -24q26 0 26 28q0 30 -37 30h-5v49q-60 7 -93 47.5t-33 106.5v16h102v-19q0 -62 47 -62q46 0 46 55q0 18 -12 33q-11 15 -22 23
t-40 25q-34 19 -42 26q-23 18 -35 29q-39 39 -39 107q0 66 37.5 103.5t105.5 37.5q66 0 104.5 -40t38.5 -109v-11h-100v14q0 55 -42 55q-41 0 -41 -48q0 -26 18 -45.5t60 -41.5q49 -27 76 -54q38 -35 38 -102z" />
    <glyph glyph-name="Scaron" unicode="&#x160;" horiz-adv-x="371" 
d="M237 743h-104l-82 135h83l51 -75l51 75h83zM184 -10q-80 0 -121 45.5t-41 130.5v40h104v-48q0 -68 57 -68q58 0 58 70q0 43 -21 76q-20 33 -75 81q-68 61 -96 109q-27 50 -27 110q0 84 42 129t122 45q78 0 119 -45.5t41 -130.5v-29h-104v36q0 69 -55 69q-56 0 -56 -67
q0 -39 21 -70q22 -34 76 -80q69 -60 95 -110q27 -49 27 -115q0 -86 -42.5 -132t-123.5 -46z" />
    <glyph glyph-name="scaron" unicode="&#x161;" horiz-adv-x="342" 
d="M220 563h-104l-82 135h83l51 -75l51 75h83zM175 -10q-73 0 -113.5 41t-40.5 115v16h102v-19q0 -62 47 -62q46 0 46 55q0 18 -12 33q-11 15 -22 23t-40 25q-34 19 -42 26q-23 18 -35 29q-39 39 -39 107q0 66 37.5 103.5t105.5 37.5q66 0 104.5 -40t38.5 -109v-11h-100v14
q0 55 -42 55q-41 0 -41 -48q0 -26 18 -45.5t60 -41.5q49 -27 76 -54q38 -35 38 -102q0 -70 -38 -109t-108 -39z" />
    <glyph glyph-name="uni0162" unicode="&#x162;" horiz-adv-x="364" 
d="M237 600v-600h-30v-39q36 0 52.5 -12t16.5 -39q0 -38 -23.5 -51.5t-78.5 -13.5q-96 0 -96 62v10h74v-8q0 -24 22 -24q26 0 26 28q0 30 -37 30h-5v57h-31v600h-115v100h340v-100h-115z" />
    <glyph glyph-name="uni0163" unicode="&#x163;" horiz-adv-x="271" 
d="M186 -10v-29q36 0 52.5 -12t16.5 -39q0 -38 -23.5 -51.5t-78.5 -13.5q-96 0 -96 62v10h74v-8q0 -24 22 -24q26 0 26 28q0 30 -37 30h-5v56q-67 24 -67 115v306h-58v90h63l10 138h91v-138h77v-90h-77v-292q0 -24 9.5 -34t31.5 -10q17 0 36 6v-90q-24 -10 -58 -10h-9z" />
    <glyph glyph-name="Tcaron" unicode="&#x164;" horiz-adv-x="364" 
d="M234 743h-104l-82 135h83l51 -75l51 75h83zM237 0h-110v600h-115v100h340v-100h-115v-600z" />
    <glyph glyph-name="tcaron" unicode="&#x165;" horiz-adv-x="294" 
d="M202 648v102h102v-91l-46 -115h-45l29 104h-40zM85 648h91v-138h77v-90h-77v-292q0 -24 9.5 -34t31.5 -10q17 0 36 6v-90q-24 -10 -58 -10q-125 0 -125 124v306h-58v90h63z" />
    <glyph glyph-name="Tbar" unicode="&#x166;" horiz-adv-x="364" 
d="M352 700v-100h-115v-185h76v-100h-76v-315h-110v315h-76v100h76v185h-115v100h340z" />
    <glyph glyph-name="tbar" unicode="&#x167;" horiz-adv-x="271" 
d="M253 510v-90h-77v-122h61v-76h-61v-94q0 -24 9.5 -34t31.5 -10q17 0 36 6v-90q-24 -10 -58 -10q-125 0 -125 124v108h-47v76h47v122h-58v90h63l10 138h91v-138h77z" />
    <glyph glyph-name="Utilde" unicode="&#x168;" horiz-adv-x="402" 
d="M121 752l-54 32q38 84 91 84q25 0 54 -22q21 -15 32 -15q19 0 37 39l54 -32q-37 -84 -91 -84q-25 0 -54 22q-21 15 -32 15q-20 0 -37 -39zM37 166v534h110v-542q0 -68 56 -68t56 68v542h106v-534q0 -85 -42 -130.5t-122 -45.5t-122 45.5t-42 130.5z" />
    <glyph glyph-name="utilde" unicode="&#x169;" horiz-adv-x="389" 
d="M150 611q-20 0 -37 -39l-54 32q37 84 91 84q25 0 54 -22q21 -15 32 -15q19 0 37 39l54 -32q-37 -84 -91 -84q-25 0 -54 22q-21 15 -32 15zM242 166v344h106v-510h-92l-2 59q-28 -69 -102 -69q-114 0 -114 149v371h106v-359q0 -67 44 -67q54 0 54 82z" />
    <glyph glyph-name="Umacron" unicode="&#x16a;" horiz-adv-x="402" 
d="M316 772h-230v78h230v-78zM37 166v534h110v-542q0 -68 56 -68t56 68v542h106v-534q0 -85 -42 -130.5t-122 -45.5t-122 45.5t-42 130.5z" />
    <glyph glyph-name="umacron" unicode="&#x16b;" horiz-adv-x="389" 
d="M78 670h230v-78h-230v78zM242 166v344h106v-510h-92l-2 59q-28 -69 -102 -69q-114 0 -114 149v371h106v-359q0 -67 44 -67q54 0 54 82z" />
    <glyph glyph-name="Ubreve" unicode="&#x16c;" horiz-adv-x="402" 
d="M201 751q-55 0 -85 31t-32 88h65q6 -48 52 -48q48 0 54 48h65q-2 -57 -32.5 -88t-86.5 -31zM37 166v534h110v-542q0 -68 56 -68t56 68v542h106v-534q0 -85 -42 -130.5t-122 -45.5t-122 45.5t-42 130.5z" />
    <glyph glyph-name="ubreve" unicode="&#x16d;" horiz-adv-x="389" 
d="M193 571q-55 0 -85 31t-32 88h65q6 -48 52 -48q48 0 54 48h65q-2 -57 -32.5 -88t-86.5 -31zM242 166v344h106v-510h-92l-2 59q-28 -69 -102 -69q-114 0 -114 149v371h106v-359q0 -67 44 -67q54 0 54 82z" />
    <glyph glyph-name="Uring" unicode="&#x16e;" horiz-adv-x="402" 
d="M264 768q-25 -25 -63 -25q-39 0 -64 25q-25 26 -25 63t25 62q26 26 64 26q37 0 63 -26q26 -25 26 -62t-26 -63zM178 805q9 -9 23 -9t23 9q9 10 9 26t-9 25q-9 10 -23 10t-23 -10q-9 -9 -9 -25t9 -26zM37 166v534h110v-542q0 -68 56 -68t56 68v542h106v-534
q0 -85 -42 -130.5t-122 -45.5t-122 45.5t-42 130.5z" />
    <glyph glyph-name="uring" unicode="&#x16f;" horiz-adv-x="389" 
d="M256 588q-25 -25 -63 -25q-39 0 -64 25q-25 26 -25 63t25 62q26 26 64 26q37 0 63 -26q26 -25 26 -62t-26 -63zM216 676q-9 10 -23 10t-23 -10q-9 -9 -9 -25t9 -26q9 -9 23 -9t23 9q9 10 9 26t-9 25zM242 166v344h106v-510h-92l-2 59q-28 -69 -102 -69q-114 0 -114 149
v371h106v-359q0 -67 44 -67q54 0 54 82z" />
    <glyph glyph-name="Uhungarumlaut" unicode="&#x170;" horiz-adv-x="402" 
d="M145 743h-74l70 135h111zM294 743h-74l70 135h111zM37 166v534h110v-542q0 -68 56 -68t56 68v542h106v-534q0 -85 -42 -130.5t-122 -45.5t-122 45.5t-42 130.5z" />
    <glyph glyph-name="uhungarumlaut" unicode="&#x171;" horiz-adv-x="389" 
d="M133 698h111l-107 -135h-74zM393 698l-107 -135h-74l70 135h111zM242 166v344h106v-510h-92l-2 59q-28 -69 -102 -69q-114 0 -114 149v371h106v-359q0 -67 44 -67q54 0 54 82z" />
    <glyph glyph-name="Uogonek" unicode="&#x172;" horiz-adv-x="402" 
d="M259 158v542h106v-534q0 -140 -107 -169q-27 -26 -27 -56q0 -35 39 -35q10 0 32 6v-56q-30 -11 -61 -11q-95 0 -95 66q0 47 50 79q-77 1 -118 46.5t-41 129.5v534h110v-542q0 -68 56 -68t56 68z" />
    <glyph glyph-name="uogonek" unicode="&#x173;" horiz-adv-x="389" 
d="M348 0h-41q-30 -26 -30 -59q0 -35 39 -35q10 0 32 6v-56q-30 -11 -61 -11q-95 0 -95 66q0 54 68 89h-4l-2 59q-28 -69 -102 -69q-114 0 -114 149v371h106v-359q0 -67 44 -67q54 0 54 82v344h106v-510z" />
    <glyph glyph-name="Wcircumflex" unicode="&#x174;" horiz-adv-x="557" 
d="M228 743h-83l82 135h104l82 -135h-83l-51 75zM232 0h-146l-71 700h106l50 -548l53 548h120l53 -548l50 548h95l-71 -700h-137l-51 481z" />
    <glyph glyph-name="wcircumflex" unicode="&#x175;" horiz-adv-x="541" 
d="M220 563h-83l82 135h104l82 -135h-83l-51 75zM226 0h-135l-77 510h104l54 -367l50 367h107l50 -367l54 367h94l-77 -510h-128l-48 314z" />
    <glyph glyph-name="Ycircumflex" unicode="&#x176;" horiz-adv-x="392" 
d="M145 743h-83l82 135h104l82 -135h-83l-51 75zM251 0h-110v298l-133 402h117l76 -261l76 261h107l-133 -402v-298z" />
    <glyph glyph-name="ycircumflex" unicode="&#x177;" horiz-adv-x="359" 
d="M129 563h-83l82 135h104l82 -135h-83l-51 75zM94 -165q-36 0 -57 10v90q18 -6 39 -6q27 0 39 9t17 34l2 7l-123 531h108l68 -351l61 351h99l-113 -554q-13 -65 -45.5 -93t-94.5 -28z" />
    <glyph glyph-name="Ydieresis" unicode="&#x178;" horiz-adv-x="392" 
d="M173 753h-95v116h95v-116zM314 753h-95v116h95v-116zM251 0h-110v298l-133 402h117l76 -261l76 261h107l-133 -402v-298z" />
    <glyph glyph-name="Zacute" unicode="&#x179;" horiz-adv-x="358" 
d="M206 743h-83l70 135h120zM339 0h-322v98l204 502h-194v100h312v-98l-204 -502h204v-100z" />
    <glyph glyph-name="zacute" unicode="&#x17a;" horiz-adv-x="332" 
d="M192 563h-83l70 135h120zM310 0h-291v88l179 332h-169v90h281v-88l-179 -332h179v-90z" />
    <glyph glyph-name="Zdotaccent" unicode="&#x17b;" horiz-adv-x="358" 
d="M236 753h-106v116h106v-116zM339 0h-322v98l204 502h-194v100h312v-98l-204 -502h204v-100z" />
    <glyph glyph-name="zdotaccent" unicode="&#x17c;" horiz-adv-x="332" 
d="M222 573h-106v116h106v-116zM310 0h-291v88l179 332h-169v90h281v-88l-179 -332h179v-90z" />
    <glyph glyph-name="Zcaron" unicode="&#x17d;" horiz-adv-x="358" 
d="M235 743h-104l-82 135h83l51 -75l51 75h83zM339 0h-322v98l204 502h-194v100h312v-98l-204 -502h204v-100z" />
    <glyph glyph-name="zcaron" unicode="&#x17e;" horiz-adv-x="332" 
d="M221 563h-104l-82 135h83l51 -75l51 75h83zM310 0h-291v88l179 332h-169v90h281v-88l-179 -332h179v-90z" />
    <glyph glyph-name="florin" unicode="&#x192;" 
d="M297 364v-2q82 -31 82 -149v-22q0 -132 -108 -159v-87h-62v80h-58v-80h-62v80h-70v100h40v450h-40v100h70v70h62v-70h58v70h62v-78q97 -25 97 -148v-15q0 -107 -71 -140zM202 575h-33v-170h23q34 0 50 17.5t16 56.5v24q0 72 -56 72zM198 305h-29v-180h43q30 0 43.5 15.5
t13.5 53.5v26q0 47 -16 66t-55 19z" />
    <glyph glyph-name="AEacute" unicode="&#x1fc;" horiz-adv-x="575" 
d="M297 878h120l-107 -135h-83zM557 700v-100h-190v-185h151v-100h-151v-215h190v-100h-300v137h-108l-35 -137h-105l189 700h359zM257 565l-84 -333h84v333z" />
    <glyph glyph-name="aeacute" unicode="&#x1fd;" horiz-adv-x="569" 
d="M295 698h120l-107 -135h-83zM540 354v-122h-208v-86q0 -62 53 -62t53 62v19h102v-9q0 -80 -40.5 -123t-116.5 -43q-84 0 -124 52q-34 -52 -113 -52q-59 0 -92.5 34t-33.5 94t27.5 98t95.5 72q55 28 68 39q15 13 15 34v10q0 58 -43 58q-48 0 -48 -59v-19h-100v13
q0 74 37 115t103 41q80 0 107 -52q34 52 111 52q69 0 108 -43.5t39 -122.5zM332 364v-48h104v48q0 62 -52 62t-52 -62zM171 81q55 0 55 85v87q-7 -9 -52 -38q-48 -30 -48 -79q0 -55 45 -55z" />
    <glyph glyph-name="Oslashacute" unicode="&#x1fe;" 
d="M210 878h120l-107 -135h-83zM317 726l60 -26l-29 -71q19 -37 19 -95v-368q0 -84 -43 -130t-124 -46q-59 0 -100 26l-17 -42l-60 26l29 71q-19 37 -19 95v368q0 84 43 130t124 46q59 0 100 -26zM143 541v-245l111 274q-10 40 -54 40q-57 0 -57 -69zM257 159v245l-111 -274
q10 -40 54 -40q57 0 57 69z" />
    <glyph glyph-name="oslashacute" unicode="&#x1ff;" horiz-adv-x="374" 
d="M197 698h120l-107 -135h-83zM339 512l-24 -51q28 -41 28 -107v-198q0 -80 -40.5 -123t-115.5 -43q-49 0 -83 18l-17 -36l-52 26l24 51q-28 41 -28 107v198q0 80 40.5 123t115.5 43q49 0 83 -18l17 36zM137 364v-147l89 191q-10 18 -39 18q-50 0 -50 -62zM187 84
q50 0 50 62v147l-89 -191q10 -18 39 -18z" />
    <glyph glyph-name="uni0218" unicode="&#x218;" horiz-adv-x="371" 
d="M184 -10q-80 0 -121 45.5t-41 130.5v40h104v-48q0 -68 57 -68q58 0 58 70q0 43 -21 76q-20 33 -75 81q-68 61 -96 109q-27 50 -27 110q0 84 42 129t122 45q78 0 119 -45.5t41 -130.5v-29h-104v36q0 69 -55 69q-56 0 -56 -67q0 -39 21 -70q22 -34 76 -80q69 -60 95 -110
q27 -49 27 -115q0 -86 -42.5 -132t-123.5 -46zM181 -189h-39l40 54h-50v92h106v-82z" />
    <glyph glyph-name="uni0219" unicode="&#x219;" horiz-adv-x="342" 
d="M175 -10q-73 0 -113.5 41t-40.5 115v16h102v-19q0 -62 47 -62q46 0 46 55q0 18 -12 33q-11 15 -22 23t-40 25q-34 19 -42 26q-23 18 -35 29q-39 39 -39 107q0 66 37.5 103.5t105.5 37.5q66 0 104.5 -40t38.5 -109v-11h-100v14q0 55 -42 55q-41 0 -41 -48q0 -26 18 -45.5
t60 -41.5q49 -27 76 -54q38 -35 38 -102q0 -70 -38 -109t-108 -39zM167 -189h-39l40 54h-50v92h106v-82z" />
    <glyph glyph-name="uni021A" unicode="&#x21a;" horiz-adv-x="364" 
d="M237 0h-110v600h-115v100h340v-100h-115v-600zM178 -189h-39l40 54h-50v92h106v-82z" />
    <glyph glyph-name="uni021B" unicode="&#x21b;" horiz-adv-x="271" 
d="M253 510v-90h-77v-292q0 -24 9.5 -34t31.5 -10q17 0 36 6v-90q-24 -10 -58 -10q-125 0 -125 124v306h-58v90h63l10 138h91v-138h77zM158 -135h-50v92h106v-82l-57 -64h-39z" />
    <glyph glyph-name="uni0237" unicode="&#x237;" horiz-adv-x="188" 
d="M38 -165q-33 0 -53 10v89q17 -5 30 -5q26 0 26 28v553h106v-564q0 -111 -109 -111z" />
    <glyph glyph-name="uni02BC" unicode="&#x2bc;" horiz-adv-x="0" 
d="M5 494h-45l29 100h-42v106h106v-95z" />
    <glyph glyph-name="circumflex" unicode="&#x2c6;" horiz-adv-x="500" 
d="M199 563h-83l82 135h104l82 -135h-83l-51 75z" />
    <glyph glyph-name="caron" unicode="&#x2c7;" horiz-adv-x="500" 
d="M302 563h-104l-82 135h83l51 -75l51 75h83z" />
    <glyph glyph-name="uni02C9" unicode="&#x2c9;" horiz-adv-x="500" 
d="M365 592h-230v78h230v-78z" />
    <glyph glyph-name="breve" unicode="&#x2d8;" horiz-adv-x="500" 
d="M250 571q-55 0 -85 31t-32 88h65q6 -48 52 -48q48 0 54 48h65q-2 -57 -32.5 -88t-86.5 -31z" />
    <glyph glyph-name="dotaccent" unicode="&#x2d9;" horiz-adv-x="500" 
d="M303 573h-106v116h106v-116z" />
    <glyph glyph-name="ring" unicode="&#x2da;" horiz-adv-x="500" 
d="M313 588q-25 -25 -63 -25q-39 0 -64 25q-25 26 -25 63t25 62q26 26 64 26q37 0 63 -26q26 -25 26 -62t-26 -63zM227 625q9 -9 23 -9t23 9q9 10 9 26t-9 25q-9 10 -23 10t-23 -10q-9 -9 -9 -25t9 -26z" />
    <glyph glyph-name="ogonek" unicode="&#x2db;" horiz-adv-x="500" 
d="M267 -155q-95 0 -95 66q0 57 76 93h44q-35 -27 -35 -63q0 -35 39 -35q10 0 32 6v-56q-30 -11 -61 -11z" />
    <glyph glyph-name="tilde" unicode="&#x2dc;" horiz-adv-x="500" 
d="M170 572l-54 32q38 84 91 84q25 0 54 -22q21 -15 32 -15q19 0 37 39l54 -32q-38 -84 -91 -84q-25 0 -54 22q-21 15 -32 15q-21 0 -37 -39z" />
    <glyph glyph-name="hungarumlaut" unicode="&#x2dd;" horiz-adv-x="500" 
d="M194 563h-74l70 135h111zM343 563h-74l70 135h111z" />
    <glyph glyph-name="gravecomb" unicode="&#x300;" horiz-adv-x="0" 
d="M60 563h-83l-107 135h120z" />
    <glyph glyph-name="acutecomb" unicode="&#x301;" horiz-adv-x="0" 
d="M23 563h-83l70 135h120z" />
    <glyph glyph-name="uni0302" unicode="&#x302;" horiz-adv-x="0" 
d="M-51 563h-83l82 135h104l82 -135h-83l-51 75z" />
    <glyph glyph-name="tildecomb" unicode="&#x303;" horiz-adv-x="0" 
d="M-80 572l-54 32q37 84 91 84q25 0 54 -22q21 -15 32 -15q19 0 37 39l54 -32q-38 -84 -91 -84q-25 0 -54 22q-21 15 -32 15q-21 0 -37 -39z" />
    <glyph glyph-name="uni0304" unicode="&#x304;" horiz-adv-x="0" 
d="M115 592h-230v78h230v-78z" />
    <glyph glyph-name="uni0306" unicode="&#x306;" horiz-adv-x="0" 
d="M0 571q-55 0 -85 31t-32 88h65q6 -48 52 -48q48 0 54 48h65q-2 -57 -32.5 -88t-86.5 -31z" />
    <glyph glyph-name="uni0307" unicode="&#x307;" horiz-adv-x="0" 
d="M53 573h-106v116h106v-116z" />
    <glyph glyph-name="uni0308" unicode="&#x308;" horiz-adv-x="0" 
d="M-23 573h-95v116h95v-116zM118 573h-95v116h95v-116z" />
    <glyph glyph-name="uni030A" unicode="&#x30a;" horiz-adv-x="0" 
d="M63 588q-25 -25 -63 -25t-63 25q-26 26 -26 63t26 62q25 26 63 26t63 -26q26 -25 26 -62t-26 -63zM-23 625q9 -9 23 -9t23 9q9 10 9 26t-9 25q-9 10 -23 10t-23 -10q-9 -9 -9 -25t9 -26z" />
    <glyph glyph-name="uni030B" unicode="&#x30b;" horiz-adv-x="0" 
d="M-56 563h-74l70 135h111zM93 563h-74l70 135h111z" />
    <glyph glyph-name="uni030C" unicode="&#x30c;" horiz-adv-x="0" 
d="M52 563h-104l-82 135h83l51 -75l51 75h83z" />
    <glyph glyph-name="uni0312" unicode="&#x312;" horiz-adv-x="0" 
d="M53 573h-106v82l50 64h39l-33 -54h50v-92z" />
    <glyph glyph-name="uni0326" unicode="&#x326;" horiz-adv-x="0" 
d="M-4 -189h-39l40 54h-50v92h106v-82z" />
    <glyph glyph-name="uni0327" unicode="&#x327;" horiz-adv-x="0" 
d="M-8 -155q-96 0 -96 62v10h74v-8q0 -24 22 -24q26 0 26 28q0 30 -37 30h-5v71h49v-53q36 0 52.5 -12t16.5 -39q0 -38 -23.5 -51.5t-78.5 -13.5z" />
    <glyph glyph-name="uni0328" unicode="&#x328;" horiz-adv-x="0" 
d="M17 -155q-95 0 -95 66q0 57 76 93h44q-35 -27 -35 -63q0 -35 39 -35q10 0 32 6v-56q-30 -11 -61 -11z" />
    <glyph glyph-name="uni0335" unicode="&#x335;" horiz-adv-x="0" 
d="M107 303h-214v94h214v-94z" />
    <glyph glyph-name="uni0336" unicode="&#x336;" horiz-adv-x="0" 
d="M209 305h-418v90h418v-90z" />
    <glyph glyph-name="uni0337" unicode="&#x337;" horiz-adv-x="0" 
d="M152 512l-252 -540l-52 26l252 540z" />
    <glyph glyph-name="uni0338" unicode="&#x338;" horiz-adv-x="0" 
d="M177 700l-294 -726l-60 26l294 726z" />
    <glyph glyph-name="uni0394" unicode="&#x394;" horiz-adv-x="399" 
d="M388 0h-377l114 700h149zM195 575l-68 -475h136z" />
    <glyph glyph-name="uni03A9" unicode="&#x3a9;" horiz-adv-x="398" 
d="M183 0h-151v100h82q-45 48 -64 103q-18 53 -18 135v196q0 84 43 130t124 46t124 -46t43 -130v-196q0 -81 -18.5 -134.5t-63.5 -103.5h82v-100h-151v100q24 41 32.5 83t8.5 108v250q0 69 -57 69t-57 -69v-250q0 -66 8.5 -108t32.5 -83v-100z" />
    <glyph glyph-name="uni03BC" unicode="&#x3bc;" horiz-adv-x="392" 
d="M245 166v344h106v-510h-92l-2 59q-29 -69 -102 -69h-8v-145h-106v665h106v-359q0 -67 44 -67q54 0 54 82z" />
    <glyph glyph-name="pi" unicode="&#x3c0;" horiz-adv-x="438" 
d="M177 0h-106v420h-58v90h412v-90h-58v-420h-106v420h-84v-420z" />
    <glyph glyph-name="uni0401" unicode="&#x401;" horiz-adv-x="359" 
d="M168 753h-95v116h95v-116zM309 753h-95v116h95v-116zM341 0h-300v700h300v-100h-190v-185h151v-100h-151v-215h190v-100z" />
    <glyph glyph-name="uni0404" unicode="&#x404;" horiz-adv-x="382" 
d="M361 538v-39h-104v46q0 65 -57 65t-57 -65v-130h111v-100h-111v-161q0 -64 57 -64t57 64v67h104v-59q0 -82 -42 -127t-122 -45t-122 45t-42 127v376q0 82 42 127t122 45t122 -45t42 -127z" />
    <glyph glyph-name="uni0406" unicode="&#x406;" horiz-adv-x="192" 
d="M151 0h-110v700h110v-700z" />
    <glyph glyph-name="uni0407" unicode="&#x407;" horiz-adv-x="192" 
d="M73 753h-95v116h95v-116zM214 753h-95v116h95v-116zM151 0h-110v700h110v-700z" />
    <glyph glyph-name="uni0410" unicode="&#x410;" horiz-adv-x="399" 
d="M388 0h-110l-19 137h-127l-19 -137h-102l114 700h149zM195 585l-49 -353h99z" />
    <glyph glyph-name="uni0411" unicode="&#x411;" horiz-adv-x="393" 
d="M211 0h-170v700h291v-100h-181v-175h60q164 0 164 -173v-79q0 -173 -164 -173zM151 325v-225h60q28 0 41 15.5t13 50.5v93q0 35 -13 50.5t-41 15.5h-60z" />
    <glyph glyph-name="uni0412" unicode="&#x412;" horiz-adv-x="404" 
d="M214 0h-173v700h166q84 0 123.5 -39.5t39.5 -121.5v-28q0 -108 -71 -137v-2q82 -28 82 -146v-60q0 -81 -42.5 -123.5t-124.5 -42.5zM151 600v-185h43q34 0 50 17.5t16 56.5v39q0 72 -56 72h-53zM151 315v-215h63q30 0 43.5 15.5t13.5 53.5v61q0 47 -16 66t-55 19h-49z
" />
    <glyph glyph-name="uni0413" unicode="&#x413;" horiz-adv-x="334" 
d="M151 0h-110v700h281v-100h-171v-600z" />
    <glyph glyph-name="uni0414" unicode="&#x414;" horiz-adv-x="482" 
d="M417 700v-600h54v-194h-110v94h-240v-94h-110v194h59q17 22 19 72l18 528h310zM175 100h132v500h-96l-11 -422q-2 -47 -25 -78z" />
    <glyph glyph-name="uni0415" unicode="&#x415;" horiz-adv-x="359" 
d="M341 0h-300v700h300v-100h-190v-185h151v-100h-151v-215h190v-100z" />
    <glyph glyph-name="uni0416" unicode="&#x416;" horiz-adv-x="614" 
d="M604 0h-111l-89 330l-42 -80v-250h-110v250l-42 80l-89 -330h-111l128 446l-126 254h113l127 -288v288h110v-288l127 288h113l-126 -254z" />
    <glyph glyph-name="uni0417" unicode="&#x417;" horiz-adv-x="374" 
d="M20 164v57h104v-62q0 -69 57 -69q29 0 43 18t14 61v57q0 48 -17 68.5t-55 20.5h-37v100h40q34 0 50 17.5t16 56.5v51q0 70 -55 70q-53 0 -53 -65v-46h-104v37q0 84 41.5 129t119.5 45q79 0 120 -44.5t41 -128.5v-25q0 -112 -78 -141v-2q81 -30 81 -144v-62
q0 -84 -41.5 -128.5t-122.5 -44.5t-122.5 45t-41.5 129z" />
    <glyph glyph-name="uni0418" unicode="&#x418;" horiz-adv-x="427" 
d="M139 248l136 452h111v-700h-98v454l-136 -454h-111v700h98v-452z" />
    <glyph glyph-name="uni0419" unicode="&#x419;" horiz-adv-x="427" 
d="M213 751q-55 0 -85 31t-32 88h65q6 -48 52 -48q48 0 54 48h65q-2 -57 -32.5 -88t-86.5 -31zM139 248l136 452h111v-700h-98v454l-136 -454h-111v700h98v-452z" />
    <glyph glyph-name="uni041A" unicode="&#x41a;" horiz-adv-x="414" 
d="M403 0h-115l-92 308l-45 -88v-220h-110v700h110v-301l138 301h112l-131 -257z" />
    <glyph glyph-name="uni041B" unicode="&#x41b;" horiz-adv-x="458" 
d="M43 -1q-16 0 -31 3v97q8 -2 17 -2q33 0 46.5 16.5t14.5 58.5l17 528h310v-700h-110v600h-96l-12 -422q-2 -94 -38 -136.5t-118 -42.5z" />
    <glyph glyph-name="uni041C" unicode="&#x41c;" horiz-adv-x="538" 
d="M137 0h-96v700h155l73 -508l73 508h155v-700h-104v530l-82 -530h-92l-82 530v-530z" />
    <glyph glyph-name="uni041D" unicode="&#x41d;" horiz-adv-x="420" 
d="M151 0h-110v700h110v-285h118v285h110v-700h-110v315h-118v-315z" />
    <glyph glyph-name="uni041E" unicode="&#x41e;" 
d="M33 166v368q0 84 43 130t124 46t124 -46t43 -130v-368q0 -84 -43 -130t-124 -46t-124 46t-43 130zM257 159v382q0 69 -57 69t-57 -69v-382q0 -69 57 -69t57 69z" />
    <glyph glyph-name="uni041F" unicode="&#x41f;" horiz-adv-x="420" 
d="M151 0h-110v700h338v-700h-110v600h-118v-600z" />
    <glyph glyph-name="uni0420" unicode="&#x420;" horiz-adv-x="385" 
d="M151 0h-110v700h162q164 0 164 -173v-69q0 -173 -164 -173h-52v-285zM151 600v-215h52q28 0 41 15.5t13 50.5v83q0 35 -13 50.5t-41 15.5h-52z" />
    <glyph glyph-name="uni0421" unicode="&#x421;" horiz-adv-x="381" 
d="M33 162v376q0 82 42 127t120 45t120 -45t42 -127v-74h-104v81q0 65 -55 65t-55 -65v-391q0 -64 55 -64t55 64v102h104v-94q0 -82 -42 -127t-120 -45t-120 45t-42 127z" />
    <glyph glyph-name="uni0422" unicode="&#x422;" horiz-adv-x="364" 
d="M237 0h-110v600h-115v100h340v-100h-115v-600z" />
    <glyph glyph-name="uni0423" unicode="&#x423;" horiz-adv-x="392" 
d="M208 328l74 372h103l-129 -583q-15 -68 -51 -97.5t-103 -29.5q-34 0 -61 11v95q23 -6 44 -6q28 0 42 9.5t21 33.5l2 14l-137 553h113z" />
    <glyph glyph-name="uni0424" unicode="&#x424;" horiz-adv-x="558" 
d="M334 0h-110v79h-26q-85 0 -129.5 47t-44.5 136v176q0 89 44.5 136t129.5 47h26v79h110v-79h26q85 0 129.5 -47t44.5 -136v-176q0 -89 -44.5 -136t-129.5 -47h-26v-79zM198 179h26v342h-26q-64 0 -64 -76v-190q0 -76 64 -76zM334 521v-342h26q64 0 64 76v190q0 76 -64 76
h-26z" />
    <glyph glyph-name="uni0425" unicode="&#x425;" horiz-adv-x="404" 
d="M114 0h-104l127 358l-121 342h116l75 -229l77 229h104l-121 -342l127 -358h-116l-81 247z" />
    <glyph glyph-name="uni0426" unicode="&#x426;" horiz-adv-x="448" 
d="M437 -94h-110v94h-286v700h110v-600h118v600h110v-600h58v-194z" />
    <glyph glyph-name="uni0427" unicode="&#x427;" horiz-adv-x="406" 
d="M255 425v275h110v-700h-110v285q-41 -38 -98 -38q-63 0 -97.5 37.5t-34.5 112.5v303h110v-289q0 -64 53 -64q67 0 67 78z" />
    <glyph glyph-name="uni0428" unicode="&#x428;" horiz-adv-x="598" 
d="M557 0h-516v700h110v-600h93v600h110v-600h93v600h110v-700z" />
    <glyph glyph-name="uni0429" unicode="&#x429;" horiz-adv-x="627" 
d="M557 700v-600h58v-195h-110v95h-464v700h110v-600h93v600h110v-600h93v600h110z" />
    <glyph glyph-name="uni042A" unicode="&#x42a;" horiz-adv-x="436" 
d="M253 0h-162v600h-79v100h189v-265h52q164 0 164 -173v-89q0 -173 -164 -173zM201 335v-235h52q28 0 41 15.5t13 50.5v103q0 35 -13 50.5t-41 15.5h-52z" />
    <glyph glyph-name="uni042B" unicode="&#x42b;" horiz-adv-x="578" 
d="M203 0h-162v700h110v-265h52q164 0 164 -173v-89q0 -173 -164 -173zM537 0h-110v700h110v-700zM151 335v-235h52q28 0 41 15.5t13 50.5v103q0 35 -13 50.5t-41 15.5h-52z" />
    <glyph glyph-name="uni042C" unicode="&#x42c;" horiz-adv-x="386" 
d="M203 0h-162v700h110v-265h52q164 0 164 -173v-89q0 -173 -164 -173zM151 335v-235h52q28 0 41 15.5t13 50.5v103q0 35 -13 50.5t-41 15.5h-52z" />
    <glyph glyph-name="uni042D" unicode="&#x42d;" horiz-adv-x="382" 
d="M349 538v-376q0 -82 -42 -127t-122 -45t-122 45t-42 127v59h104v-67q0 -64 57 -64t57 64v161h-111v100h111v130q0 65 -57 65t-57 -65v-46h-104v39q0 82 42 127t122 45t122 -45t42 -127z" />
    <glyph glyph-name="uni042E" unicode="&#x42e;" horiz-adv-x="600" 
d="M567 534v-368q0 -84 -43 -130t-124 -46t-124 46t-43 130v149h-82v-315h-110v700h110v-285h82v119q0 84 43 130t124 46t124 -46t43 -130zM457 159v382q0 69 -57 69t-57 -69v-382q0 -69 57 -69t57 69z" />
    <glyph glyph-name="uni042F" unicode="&#x42f;" horiz-adv-x="403" 
d="M362 700v-700h-110v300h-38q-38 0 -53.5 -19t-15.5 -67v-128q0 -57 -10 -86h-112q12 28 12 85v123q0 126 73 148v2q-72 28 -72 138v43q0 82 39.5 121.5t123.5 39.5h163zM212 400h40v200h-50q-56 0 -56 -72v-54q0 -39 16 -56.5t50 -17.5z" />
    <glyph glyph-name="uni0430" unicode="&#x430;" horiz-adv-x="372" 
d="M344 0h-97q-6 12 -8 60q-30 -70 -108 -70q-51 0 -81 34.5t-30 93.5q0 60 28 98.5t95 71.5q55 27 69 39q14 14 14 34v10q0 58 -43 58q-48 0 -48 -59v-19h-100v13q0 75 38.5 115.5t110.5 40.5q77 0 112.5 -40.5t35.5 -127.5v-205q0 -97 12 -147zM171 81q55 0 55 85v87
q-7 -9 -52 -38q-48 -30 -48 -79q0 -55 45 -55z" />
    <glyph glyph-name="uni0431" unicode="&#x431;" horiz-adv-x="380" 
d="M232 490q116 0 116 -149v-185q0 -80 -40.5 -123t-115.5 -43t-115.5 43t-40.5 123v275q0 79 34 135q12 21 42 41q33 22 46 29q20 10 55 24q63 25 101 50v-104q-23 -16 -79 -37q-44 -16 -65 -33q-28 -22 -28 -75v-18q33 47 90 47zM242 146v188q0 62 -45 62q-55 0 -55 -82
v-168q0 -62 50 -62t50 62z" />
    <glyph glyph-name="uni0432" unicode="&#x432;" horiz-adv-x="391" 
d="M208 0h-167v510h160q157 0 157 -128v-8q0 -84 -67 -108v-2q78 -22 78 -116v-5q0 -143 -161 -143zM147 420v-117h42q63 0 63 60v8q0 27 -13 38t-41 11h-51zM147 213v-123h61q28 0 41.5 13.5t13.5 44.5v7q0 30 -16 44t-53 14h-47z" />
    <glyph glyph-name="uni0433" unicode="&#x433;" horiz-adv-x="295" 
d="M147 0h-106v510h241v-90h-135v-420z" />
    <glyph glyph-name="uni0434" unicode="&#x434;" horiz-adv-x="449" 
d="M386 510v-420h50v-184h-106v94h-211v-94h-106v184h57q15 16 18 60l16 360h282zM168 90h112v330h-76l-11 -263q-1 -43 -25 -67z" />
    <glyph glyph-name="uni0435" unicode="&#x435;" horiz-adv-x="374" 
d="M345 354v-122h-208v-86q0 -62 53 -62t53 62v19h102v-9q0 -80 -40.5 -123t-116.5 -43t-116.5 43t-40.5 123v198q0 80 40.5 123t116.5 43t116.5 -43t40.5 -123zM137 364v-48h104v48q0 62 -52 62t-52 -62z" />
    <glyph glyph-name="uni0436" unicode="&#x436;" horiz-adv-x="580" 
d="M570 0h-110l-77 233l-40 -65v-168h-106v168l-40 65l-77 -233h-110l118 319l-112 191h115l106 -210v210h106v-210l106 210h115l-112 -191z" />
    <glyph glyph-name="uni0437" unicode="&#x437;" horiz-adv-x="363" 
d="M20 131v34h100v-21q0 -60 56 -60t56 64v10q0 34 -17 49.5t-55 15.5h-35v84h38q35 0 50.5 13t15.5 43v6q0 57 -54 57q-52 0 -52 -57v-7h-100v17q0 67 41 104t115 37t115 -36.5t41 -103.5v-6q0 -79 -75 -103v-2q78 -23 78 -116v-13q0 -71 -41.5 -110.5t-117.5 -39.5
t-117.5 37t-41.5 104z" />
    <glyph glyph-name="uni0438" unicode="&#x438;" horiz-adv-x="401" 
d="M137 193l115 317h108v-510h-96v315l-115 -315h-108v510h96v-317z" />
    <glyph glyph-name="uni0439" unicode="&#x439;" horiz-adv-x="401" 
d="M201 571q-55 0 -85 31t-32 88h65q6 -48 52 -48q48 0 54 48h65q-2 -57 -32.5 -88t-86.5 -31zM137 193l115 317h108v-510h-96v315l-115 -315h-108v510h96v-317z" />
    <glyph glyph-name="uni043A" unicode="&#x43a;" horiz-adv-x="394" 
d="M384 0h-114l-81 214l-42 -67v-147h-106v510h106v-214l118 214h113l-118 -188z" />
    <glyph glyph-name="uni043B" unicode="&#x43b;" horiz-adv-x="426" 
d="M58 -3q-32 0 -45 5v93q15 -3 30 -3q22 0 32 12t11 42l16 364h283v-510h-106v414h-76l-12 -279q-6 -138 -133 -138z" />
    <glyph glyph-name="uni043C" unicode="&#x43c;" horiz-adv-x="536" 
d="M267 172l78 338h150v-510h-102v385l-89 -385h-80l-89 385v-385h-94v510h148z" />
    <glyph glyph-name="uni043D" unicode="&#x43d;" horiz-adv-x="397" 
d="M250 312v198h106v-510h-106v222h-103v-222h-106v510h106v-198h103z" />
    <glyph glyph-name="uni043E" unicode="&#x43e;" horiz-adv-x="374" 
d="M31 156v198q0 80 40.5 123t115.5 43t115.5 -43t40.5 -123v-198q0 -80 -40.5 -123t-115.5 -43t-115.5 43t-40.5 123zM237 146v218q0 62 -50 62t-50 -62v-218q0 -62 50 -62t50 62z" />
    <glyph glyph-name="uni043F" unicode="&#x43f;" horiz-adv-x="392" 
d="M41 510h310v-510h-106v420h-98v-420h-106v510z" />
    <glyph glyph-name="uni0440" unicode="&#x440;" horiz-adv-x="387" 
d="M237 520q116 0 116 -149v-232q0 -149 -116 -149q-57 0 -90 47v-192h-106v665h92l2 -60q28 70 102 70zM247 146v218q0 62 -45 62q-55 0 -55 -82v-178q0 -82 55 -82q45 0 45 62z" />
    <glyph glyph-name="uni0441" unicode="&#x441;" horiz-adv-x="362" 
d="M31 154v202q0 79 40 121.5t115 42.5q74 0 112.5 -43t38.5 -121v-31h-102v41q0 60 -49 60t-49 -60v-222q0 -60 49 -60t49 60v51h102v-41q0 -78 -38.5 -121t-112.5 -43q-75 0 -115 42.5t-40 121.5z" />
    <glyph glyph-name="uni0442" unicode="&#x442;" horiz-adv-x="354" 
d="M230 0h-106v420h-111v90h328v-90h-111v-420z" />
    <glyph glyph-name="uni0443" unicode="&#x443;" horiz-adv-x="359" 
d="M94 -165q-36 0 -57 10v90q18 -6 39 -6q27 0 39 9t17 34l2 7l-123 531h108l68 -351l61 351h99l-113 -554q-13 -65 -45.5 -93t-94.5 -28z" />
    <glyph glyph-name="uni0444" unicode="&#x444;" horiz-adv-x="517" 
d="M312 -155h-106v155h-16q-78 0 -119 42t-41 120v186q0 79 40.5 120.5t119.5 41.5h16v190h106v-190h15q78 0 119 -42t41 -120v-186q0 -78 -41 -120t-119 -42h-15v-155zM190 90h16v330h-16q-17 0 -32 -7q-22 -12 -22 -52v-212q0 -59 54 -59zM312 420v-330h15q9 0 16 1.5
t17 6t15.5 18t5.5 33.5v212q0 59 -54 59h-15z" />
    <glyph glyph-name="uni0445" unicode="&#x445;" horiz-adv-x="376" 
d="M115 0h-105l114 262l-108 248h116l61 -159l62 159h105l-108 -248l114 -262h-116l-67 175z" />
    <glyph glyph-name="uni0446" unicode="&#x446;" horiz-adv-x="418" 
d="M405 -94h-106v94h-258v510h106v-420h98v420h106v-420h54v-184z" />
    <glyph glyph-name="uni0447" unicode="&#x447;" horiz-adv-x="375" 
d="M228 361v149h106v-510h-106v228q-31 -43 -88 -43q-116 0 -116 149v176h106v-164q0 -67 44 -67q54 0 54 82z" />
    <glyph glyph-name="uni0448" unicode="&#x448;" horiz-adv-x="585" 
d="M544 0h-503v510h106v-420h93v420h106v-420h92v420h106v-510z" />
    <glyph glyph-name="uni0449" unicode="&#x449;" horiz-adv-x="611" 
d="M598 -94h-106v94h-451v510h106v-420h93v420h106v-420h92v420h106v-420h54v-184z" />
    <glyph glyph-name="uni044A" unicode="&#x44a;" horiz-adv-x="437" 
d="M257 0h-161v420h-83v90h189v-177h55q80 0 121.5 -42.5t41.5 -123.5t-41 -124t-122 -43zM202 237v-141h55q29 0 43 16t14 55q0 36 -13.5 53t-43.5 17h-55z" />
    <glyph glyph-name="uni044B" unicode="&#x44b;" horiz-adv-x="570" 
d="M41 0v510h106v-177h55q80 0 121.5 -42.5t41.5 -123.5t-41 -124t-122 -43h-161zM529 0h-106v510h106v-510zM202 237h-55v-141h55q29 0 43 16t14 55q0 36 -13.5 53t-43.5 17z" />
    <glyph glyph-name="uni044C" unicode="&#x44c;" horiz-adv-x="382" 
d="M41 0v510h106v-177h55q80 0 121.5 -42.5t41.5 -123.5t-41 -124t-122 -43h-161zM202 237h-55v-141h55q29 0 43 16t14 55q0 36 -13.5 53t-43.5 17z" />
    <glyph glyph-name="uni044D" unicode="&#x44d;" horiz-adv-x="365" 
d="M334 354v-198q0 -80 -40.5 -123t-116.5 -43t-116.5 43t-40.5 123v9h102v-19q0 -62 53 -62t53 62v77h-98v84h98v57q0 62 -52 62t-52 -62v-9h-104q0 79 40.5 122t116.5 43t116.5 -43t40.5 -123z" />
    <glyph glyph-name="uni044E" unicode="&#x44e;" horiz-adv-x="577" 
d="M544 354v-198q0 -80 -40.5 -123t-115.5 -43t-115.5 43t-40.5 123v66h-85v-222h-106v510h106v-198h85v42q0 80 40.5 123t115.5 43t115.5 -43t40.5 -123zM438 146v218q0 62 -50 62t-50 -62v-218q0 -62 50 -62t50 62z" />
    <glyph glyph-name="uni044F" unicode="&#x44f;" 
d="M130 0h-108q12 27 12 67v55q0 59 17.5 89.5t56.5 40.5v1q-73 24 -73 119q0 72 39 105t123 33h162v-510h-106v201h-41q-39 0 -55.5 -16.5t-16.5 -56.5v-59q0 -50 -10 -69zM214 291h39v129h-49q-63 0 -63 -62v-2q0 -65 73 -65z" />
    <glyph glyph-name="uni0451" unicode="&#x451;" horiz-adv-x="374" 
d="M69 689h95v-116h-95v116zM210 689h95v-116h-95v116zM345 354v-122h-208v-86q0 -62 53 -62t53 62v19h102v-9q0 -80 -40.5 -123t-116.5 -43t-116.5 43t-40.5 123v198q0 80 40.5 123t116.5 43t116.5 -43t40.5 -123zM137 364v-48h104v48q0 62 -52 62t-52 -62z" />
    <glyph glyph-name="uni0454" unicode="&#x454;" horiz-adv-x="365" 
d="M243 146v19h102v-9q0 -80 -40.5 -123t-116.5 -43t-116.5 43t-40.5 123v198q0 80 40.5 123t116.5 43t116.5 -43t40.5 -122h-104v9q0 62 -52 62t-52 -62v-57h98v-84h-98v-77q0 -62 53 -62t53 62z" />
    <glyph glyph-name="uni0456" unicode="&#x456;" horiz-adv-x="188" 
d="M147 573h-106v116h106v-116zM147 0h-106v510h106v-510z" />
    <glyph glyph-name="uni0457" unicode="&#x457;" horiz-adv-x="188" 
d="M71 573h-95v116h95v-116zM212 573h-95v116h95v-116zM147 0h-106v510h106v-510z" />
    <glyph glyph-name="uni0490" unicode="&#x490;" horiz-adv-x="334" 
d="M212 700v94h110v-194h-171v-600h-110v700h171z" />
    <glyph glyph-name="uni0491" unicode="&#x491;" horiz-adv-x="295" 
d="M176 510v94h106v-184h-135v-420h-106v510h135z" />
    <glyph glyph-name="uni1E02" unicode="&#x1e02;" horiz-adv-x="404" 
d="M244 753h-106v116h106v-116zM214 0h-173v700h166q84 0 123.5 -39.5t39.5 -121.5v-28q0 -108 -71 -137v-2q82 -28 82 -146v-60q0 -81 -42.5 -123.5t-124.5 -42.5zM151 600v-185h43q34 0 50 17.5t16 56.5v39q0 72 -56 72h-53zM151 315v-215h63q30 0 43.5 15.5t13.5 53.5v61
q0 47 -16 66t-55 19h-49z" />
    <glyph glyph-name="uni1E03" unicode="&#x1e03;" horiz-adv-x="387" 
d="M41 869h106v-116h-106v116zM237 520q116 0 116 -149v-232q0 -149 -116 -149q-37 0 -64.5 20.5t-40.5 57.5l-14 -68h-77v700h106v-227q33 47 90 47zM247 146v218q0 62 -45 62q-55 0 -55 -82v-178q0 -82 55 -82q45 0 45 62z" />
    <glyph glyph-name="uni1E0A" unicode="&#x1e0a;" horiz-adv-x="406" 
d="M247 753h-106v116h106v-116zM209 0h-168v700h168q164 0 164 -173v-354q0 -173 -164 -173zM151 600v-500h56q56 0 56 68v364q0 68 -56 68h-56z" />
    <glyph glyph-name="uni1E0B" unicode="&#x1e0b;" horiz-adv-x="387" 
d="M240 869h106v-116h-106v116zM358 0h-97q-6 12 -9 60q-28 -70 -103 -70q-115 0 -115 149v232q0 149 115 149q58 0 91 -47v227h106v-553q0 -97 12 -147zM185 84q55 0 55 82v178q0 82 -55 82q-45 0 -45 -62v-218q0 -62 45 -62z" />
    <glyph glyph-name="uni1E1E" unicode="&#x1e1e;" horiz-adv-x="344" 
d="M239 753h-106v116h106v-116zM151 0h-110v700h291v-100h-181v-195h142v-100h-142v-305z" />
    <glyph glyph-name="uni1E1F" unicode="&#x1e1f;" horiz-adv-x="265" 
d="M101 869h106v-116h-106v116zM218 616q-22 0 -31.5 -10t-9.5 -34v-62h77v-90h-77v-420h-106v420h-58v90h58v76q0 124 125 124q34 0 58 -10v-90q-20 6 -36 6z" />
    <glyph glyph-name="uni1E40" unicode="&#x1e40;" horiz-adv-x="538" 
d="M322 753h-106v116h106v-116zM137 0h-96v700h155l73 -508l73 508h155v-700h-104v530l-82 -530h-92l-82 530v-530z" />
    <glyph glyph-name="uni1E41" unicode="&#x1e41;" horiz-adv-x="589" 
d="M242 689h106v-116h-106v116zM437 520q114 0 114 -149v-371h-106v364q0 62 -43 62q-53 0 -53 -82v-344h-106v364q0 62 -43 62q-53 0 -53 -82v-344h-106v510h92l2 -59q29 69 100 69q76 0 102 -68q13 32 39.5 50t60.5 18z" />
    <glyph glyph-name="uni1E56" unicode="&#x1e56;" horiz-adv-x="385" 
d="M244 753h-106v116h106v-116zM151 0h-110v700h162q164 0 164 -173v-69q0 -173 -164 -173h-52v-285zM151 600v-215h52q28 0 41 15.5t13 50.5v83q0 35 -13 50.5t-41 15.5h-52z" />
    <glyph glyph-name="uni1E57" unicode="&#x1e57;" horiz-adv-x="387" 
d="M144 689h106v-116h-106v116zM237 520q116 0 116 -149v-232q0 -149 -116 -149q-57 0 -90 47v-192h-106v665h92l2 -60q28 70 102 70zM247 146v218q0 62 -45 62q-55 0 -55 -82v-178q0 -82 55 -82q45 0 45 62z" />
    <glyph glyph-name="uni1E60" unicode="&#x1e60;" horiz-adv-x="371" 
d="M238 753h-106v116h106v-116zM184 -10q-80 0 -121 45.5t-41 130.5v40h104v-48q0 -68 57 -68q58 0 58 70q0 43 -21 76q-20 33 -75 81q-68 61 -96 109q-27 50 -27 110q0 84 42 129t122 45q78 0 119 -45.5t41 -130.5v-29h-104v36q0 69 -55 69q-56 0 -56 -67q0 -39 21 -70
q22 -34 76 -80q69 -60 95 -110q27 -49 27 -115q0 -86 -42.5 -132t-123.5 -46z" />
    <glyph glyph-name="uni1E61" unicode="&#x1e61;" horiz-adv-x="342" 
d="M221 573h-106v116h106v-116zM175 -10q-73 0 -113.5 41t-40.5 115v16h102v-19q0 -62 47 -62q46 0 46 55q0 18 -12 33q-11 15 -22 23t-40 25q-34 19 -42 26q-23 18 -35 29q-39 39 -39 107q0 66 37.5 103.5t105.5 37.5q66 0 104.5 -40t38.5 -109v-11h-100v14q0 55 -42 55
q-41 0 -41 -48q0 -26 18 -45.5t60 -41.5q49 -27 76 -54q38 -35 38 -102q0 -70 -38 -109t-108 -39z" />
    <glyph glyph-name="uni1E6A" unicode="&#x1e6a;" horiz-adv-x="364" 
d="M235 753h-106v116h106v-116zM237 0h-110v600h-115v100h340v-100h-115v-600z" />
    <glyph glyph-name="uni1E6B" unicode="&#x1e6b;" horiz-adv-x="271" 
d="M77 817h106v-116h-106v116zM253 510v-90h-77v-292q0 -24 9.5 -34t31.5 -10q17 0 36 6v-90q-24 -10 -58 -10q-125 0 -125 124v306h-58v90h63l10 138h91v-138h77z" />
    <glyph glyph-name="Wgrave" unicode="&#x1e80;" horiz-adv-x="557" 
d="M339 743h-83l-107 135h120zM232 0h-146l-71 700h106l50 -548l53 548h120l53 -548l50 548h95l-71 -700h-137l-51 481z" />
    <glyph glyph-name="wgrave" unicode="&#x1e81;" horiz-adv-x="541" 
d="M331 563h-83l-107 135h120zM226 0h-135l-77 510h104l54 -367l50 367h107l50 -367l54 367h94l-77 -510h-128l-48 314z" />
    <glyph glyph-name="Wacute" unicode="&#x1e82;" horiz-adv-x="557" 
d="M302 743h-83l70 135h120zM232 0h-146l-71 700h106l50 -548l53 548h120l53 -548l50 548h95l-71 -700h-137l-51 481z" />
    <glyph glyph-name="wacute" unicode="&#x1e83;" horiz-adv-x="541" 
d="M294 563h-83l70 135h120zM226 0h-135l-77 510h104l54 -367l50 367h107l50 -367l54 367h94l-77 -510h-128l-48 314z" />
    <glyph glyph-name="Wdieresis" unicode="&#x1e84;" horiz-adv-x="557" 
d="M256 753h-95v116h95v-116zM397 753h-95v116h95v-116zM232 0h-146l-71 700h106l50 -548l53 548h120l53 -548l50 548h95l-71 -700h-137l-51 481z" />
    <glyph glyph-name="wdieresis" unicode="&#x1e85;" horiz-adv-x="541" 
d="M248 573h-95v116h95v-116zM389 573h-95v116h95v-116zM226 0h-135l-77 510h104l54 -367l50 367h107l50 -367l54 367h94l-77 -510h-128l-48 314z" />
    <glyph glyph-name="uni1E9E" unicode="&#x1e9e;" horiz-adv-x="409" 
d="M375 602l-77 -188q87 -32 87 -162v-79q0 -173 -164 -173h-27v100h27q28 0 41 15.5t13 50.5v93q0 35 -13 50.5t-41 15.5h-27v93l73 182h-116v-600h-110v700h334v-98z" />
    <glyph glyph-name="Ygrave" unicode="&#x1ef2;" horiz-adv-x="392" 
d="M256 743h-83l-107 135h120zM251 0h-110v298l-133 402h117l76 -261l76 261h107l-133 -402v-298z" />
    <glyph glyph-name="ygrave" unicode="&#x1ef3;" horiz-adv-x="359" 
d="M240 563h-83l-107 135h120zM94 -165q-36 0 -57 10v90q18 -6 39 -6q27 0 39 9t17 34l2 7l-123 531h108l68 -351l61 351h99l-113 -554q-13 -65 -45.5 -93t-94.5 -28z" />
    <glyph glyph-name="uni2002" unicode="&#x2002;" horiz-adv-x="300" 
 />
    <glyph glyph-name="uni2003" unicode="&#x2003;" horiz-adv-x="500" 
 />
    <glyph glyph-name="uni2007" unicode="&#x2007;" 
 />
    <glyph glyph-name="uni2008" unicode="&#x2008;" horiz-adv-x="200" 
 />
    <glyph glyph-name="uni200B" unicode="&#x200b;" horiz-adv-x="0" 
 />
    <glyph glyph-name="figuredash" unicode="&#x2012;" 
d="M400 260h-400v80h400v-80z" />
    <glyph glyph-name="endash" unicode="&#x2013;" horiz-adv-x="300" 
d="M300 260h-300v80h300v-80z" />
    <glyph glyph-name="emdash" unicode="&#x2014;" horiz-adv-x="500" 
d="M500 260h-500v80h500v-80z" />
    <glyph glyph-name="quoteleft" unicode="&#x2018;" horiz-adv-x="200" 
d="M108 700h51l-42 -120h38v-110h-110v99z" />
    <glyph glyph-name="quoteright" unicode="&#x2019;" horiz-adv-x="200" 
d="M92 470h-51l42 120h-38v110h110v-99z" />
    <glyph glyph-name="quotesinglbase" unicode="&#x201a;" horiz-adv-x="200" 
d="M92 -120h-51l42 120h-38v110h110v-99z" />
    <glyph glyph-name="quotedblleft" unicode="&#x201c;" horiz-adv-x="348" 
d="M108 700h51l-42 -120h38v-110h-110v99zM256 700h51l-42 -120h38v-110h-110v99z" />
    <glyph glyph-name="quotedblright" unicode="&#x201d;" horiz-adv-x="348" 
d="M92 470h-51l42 120h-38v110h110v-99zM240 470h-51l42 120h-38v110h110v-99z" />
    <glyph glyph-name="quotedblbase" unicode="&#x201e;" horiz-adv-x="348" 
d="M92 -120h-51l42 120h-38v110h110v-99zM240 -120h-51l42 120h-38v110h110v-99z" />
    <glyph glyph-name="dagger" unicode="&#x2020;" 
d="M250 -97h-100v516h-128v95h128v186h100v-186h128v-95h-128v-516z" />
    <glyph glyph-name="daggerdbl" unicode="&#x2021;" horiz-adv-x="412" 
d="M256 -97h-100v186h-128v95h128v235h-128v95h128v186h100v-186h128v-95h-128v-235h128v-95h-128v-186z" />
    <glyph glyph-name="bullet" unicode="&#x2022;" horiz-adv-x="300" 
d="M204 245q-22 -22 -54 -22t-55 22q-22 23 -22 55t22 54q23 23 55 23t54 -23q23 -22 23 -54t-23 -55z" />
    <glyph glyph-name="ellipsis" unicode="&#x2026;" horiz-adv-x="500" 
d="M138 0h-110v110h110v-110zM305 0h-110v110h110v-110zM472 0h-110v110h110v-110z" />
    <glyph glyph-name="perthousand" unicode="&#x2030;" horiz-adv-x="817" 
d="M21 423v175q0 54 27 83t79 29t79 -29t27 -83v-175q0 -54 -27 -83t-79 -29t-79 29t-27 83zM180 0h-70l271 700h70zM163 418v185q0 44 -36 44t-36 -44v-185q0 -44 36 -44t36 44zM328 102v175q0 54 27 83t79 29t79 -29t27 -83v-175q0 -54 -27 -83t-79 -29t-79 29t-27 83z
M584 102v175q0 54 27 83t79 29t79 -29t27 -83v-175q0 -54 -27 -83t-79 -29t-79 29t-27 83zM470 97v185q0 44 -36 44t-36 -44v-185q0 -44 36 -44t36 44zM726 97v185q0 44 -36 44t-36 -44v-185q0 -44 36 -44t36 44z" />
    <glyph glyph-name="guilsinglleft" unicode="&#x2039;" horiz-adv-x="195" 
d="M175 184h-80l-77 116l77 110h80l-57 -110z" />
    <glyph glyph-name="guilsinglright" unicode="&#x203a;" horiz-adv-x="195" 
d="M100 184h-80l57 116l-57 110h80l77 -110z" />
    <glyph glyph-name="fraction" unicode="&#x2044;" horiz-adv-x="93" 
d="M-54 0h-70l271 700h70z" />
    <glyph glyph-name="uni2070" unicode="&#x2070;" horiz-adv-x="278" 
d="M33 453v240q0 54 27 83t79 29t79 -29t27 -83v-240q0 -54 -27 -83t-79 -29t-79 29t-27 83zM175 448v250q0 44 -36 44t-36 -44v-250q0 -44 36 -44t36 44z" />
    <glyph glyph-name="uni2074" unicode="&#x2074;" horiz-adv-x="278" 
d="M224 351h-70v80h-133v63l127 301h76v-301h33v-63h-33v-80zM155 674l-71 -180h71v180z" />
    <glyph glyph-name="uni2075" unicode="&#x2075;" horiz-adv-x="278" 
d="M37 453v25h66v-29q0 -43 36 -43t36 43v100q0 44 -36 44t-36 -44v-9h-66l13 255h184v-63h-123l-5 -108q19 33 61 33q78 0 78 -102v-102q0 -54 -26.5 -83t-77.5 -29t-77.5 29t-26.5 83z" />
    <glyph glyph-name="uni2076" unicode="&#x2076;" horiz-adv-x="278" 
d="M36 453v237q0 115 107 115q51 0 77.5 -29t26.5 -83v-6h-66v11q0 44 -36 44q-21 0 -30 -12.5t-9 -42.5v-92q21 38 65 38q77 0 77 -101v-79q0 -54 -27.5 -83t-78.5 -29t-78.5 29t-27.5 83zM178 447v79q0 44 -36 44t-36 -44v-79q0 -43 36 -43t36 43z" />
    <glyph glyph-name="uni2077" unicode="&#x2077;" horiz-adv-x="278" 
d="M131 351h-70l113 381h-142v63h210v-61z" />
    <glyph glyph-name="uni2078" unicode="&#x2078;" horiz-adv-x="278" 
d="M28 452v35q0 69 45 93v2q-42 22 -42 88v23q0 54 28 83t80 29t80 -29t28 -83v-23q0 -66 -42 -88v-2q45 -24 45 -93v-35q0 -53 -28.5 -82t-82.5 -29t-82.5 29t-28.5 82zM177 661v34q0 47 -38 47t-38 -47v-34q0 -47 38 -47t38 47zM180 453v47q0 51 -41 51t-41 -51v-47
q0 -49 41 -49t41 49z" />
    <glyph glyph-name="uni2079" unicode="&#x2079;" horiz-adv-x="278" 
d="M135 341q-51 0 -77.5 29t-26.5 83v6h66v-11q0 -44 36 -44q21 0 30 12.5t9 42.5v92q-21 -38 -65 -38q-77 0 -77 101v79q0 54 27.5 83t78.5 29t78.5 -29t27.5 -83v-237q0 -115 -107 -115zM172 620v79q0 43 -36 43t-36 -43v-79q0 -44 36 -44t36 44z" />
    <glyph glyph-name="uni2080" unicode="&#x2080;" horiz-adv-x="278" 
d="M33 37v240q0 54 27 83t79 29t79 -29t27 -83v-240q0 -54 -27 -83t-79 -29t-79 29t-27 83zM175 32v250q0 44 -36 44t-36 -44v-250q0 -44 36 -44t36 44z" />
    <glyph glyph-name="uni2081" unicode="&#x2081;" horiz-adv-x="278" 
d="M196 -65h-70v339h-74v49q43 0 63.5 12t34.5 44h46v-444z" />
    <glyph glyph-name="uni2082" unicode="&#x2082;" horiz-adv-x="278" 
d="M239 -65h-202v50q0 49 15 85t54 77q39 39 54 68.5t15 63.5q0 47 -36 47t-36 -44v-41h-66v37q0 111 104 111q51 0 77.5 -28t26.5 -80q0 -43 -19.5 -81.5t-66.5 -88.5q-31 -33 -42 -54t-11 -47v-12h133v-63z" />
    <glyph glyph-name="uni2083" unicode="&#x2083;" horiz-adv-x="278" 
d="M32 37v37h66v-42q0 -44 36 -44t36 51v40q0 31 -10.5 43.5t-34.5 12.5h-24v63h27q42 0 42 48v29q0 51 -36 51t-36 -44v-27h-66v22q0 112 104 112t104 -112v-19q0 -67 -49 -89v-2q49 -21 49 -93v-37q0 -112 -104 -112t-104 112z" />
    <glyph glyph-name="uni2084" unicode="&#x2084;" horiz-adv-x="278" 
d="M224 -65h-70v80h-133v63l127 301h76v-301h33v-63h-33v-80zM155 258l-71 -180h71v180z" />
    <glyph glyph-name="uni2085" unicode="&#x2085;" horiz-adv-x="278" 
d="M37 37v25h66v-29q0 -43 36 -43t36 43v100q0 44 -36 44t-36 -44v-9h-66l13 255h184v-63h-123l-5 -108q20 33 61 33q78 0 78 -102v-102q0 -54 -26.5 -83t-77.5 -29t-77.5 29t-26.5 83z" />
    <glyph glyph-name="uni2086" unicode="&#x2086;" horiz-adv-x="278" 
d="M36 37v237q0 115 107 115q51 0 77.5 -29t26.5 -83v-6h-66v11q0 44 -36 44q-21 0 -30 -12.5t-9 -42.5v-92q21 38 65 38q77 0 77 -101v-79q0 -54 -27.5 -83t-78.5 -29t-78.5 29t-27.5 83zM178 31v79q0 44 -36 44t-36 -44v-79q0 -43 36 -43t36 43z" />
    <glyph glyph-name="uni2087" unicode="&#x2087;" horiz-adv-x="278" 
d="M131 -65h-70l113 381h-142v63h210v-61z" />
    <glyph glyph-name="uni2088" unicode="&#x2088;" horiz-adv-x="278" 
d="M28 36v35q0 69 45 93v2q-42 22 -42 88v23q0 54 28 83t80 29t80 -29t28 -83v-23q0 -66 -42 -88v-2q45 -24 45 -93v-35q0 -53 -28.5 -82t-82.5 -29t-82.5 29t-28.5 82zM177 245v34q0 47 -38 47t-38 -47v-34q0 -47 38 -47t38 47zM180 37v47q0 51 -41 51t-41 -51v-47
q0 -49 41 -49t41 49z" />
    <glyph glyph-name="uni2089" unicode="&#x2089;" horiz-adv-x="278" 
d="M135 -75q-51 0 -77.5 29t-26.5 83v6h66v-11q0 -44 36 -44q21 0 30 12.5t9 42.5v92q-21 -38 -65 -38q-77 0 -77 101v79q0 54 27.5 83t78.5 29t78.5 -29t27.5 -83v-237q0 -115 -107 -115zM172 204v79q0 43 -36 43t-36 -43v-79q0 -44 36 -44t36 44z" />
    <glyph glyph-name="Euro" unicode="&#x20ac;" 
d="M52 166v114h-28v55h28v55h-28v55h28v89q0 85 40.5 130.5t120.5 45.5t120.5 -45.5t40.5 -130.5v-33h-104v40q0 69 -54 69t-54 -69v-96h154v-55h-154v-55h154v-55h-154v-122q0 -68 54 -68t54 68v66h104v-58q0 -85 -40.5 -130.5t-120.5 -45.5t-120.5 45.5t-40.5 130.5z" />
    <glyph glyph-name="uni20B9" unicode="&#x20b9;" 
d="M161 313l218 -313h-133l-217 313v85h92q44 0 64 15.5t20 50.5h-176v85h176q0 35 -20 50.5t-64 15.5h-92v85h344v-85h-84q19 -28 25 -66h59v-85h-59q-6 -69 -53 -110t-100 -41z" />
    <glyph glyph-name="uni20BD" unicode="&#x20bd;" 
d="M73 700h147q164 0 164 -173v-39q0 -173 -164 -173h-37v-80h91v-100h-91v-135h-110v135h-54v100h54v80h-54v100h54v285zM274 481v53q0 35 -13 50.5t-41 15.5h-37v-185h37q28 0 41 15.5t13 50.5z" />
    <glyph glyph-name="uni20BF" unicode="&#x20bf;" 
d="M297 364v-2q82 -31 82 -149v-22q0 -132 -108 -159v-87h-62v80h-58v-80h-62v80h-70v100h40v450h-40v100h70v70h62v-70h58v70h62v-78q97 -25 97 -148v-15q0 -107 -71 -140zM202 575h-33v-170h23q34 0 50 17.5t16 56.5v24q0 72 -56 72zM198 305h-29v-180h43q30 0 43.5 15.5
t13.5 53.5v26q0 47 -16 66t-55 19z" />
    <glyph glyph-name="uni2113" unicode="&#x2113;" horiz-adv-x="235" 
d="M165 -10q-125 0 -125 124v586h106v-572q0 -24 9.5 -34t31.5 -10q17 0 36 6v-90q-24 -10 -58 -10z" />
    <glyph glyph-name="uni2116" unicode="&#x2116;" horiz-adv-x="660" 
d="M139 0h-98v700h136l81 -419v419h98v-700h-111l-106 511v-511zM410 401v141q0 56 29 87t81 31t81 -31t29 -87v-141q0 -57 -28.5 -87.5t-81.5 -30.5t-81.5 30.5t-28.5 87.5zM560 394v155q0 48 -40 48t-40 -48v-155q0 -48 40 -48t40 48zM626 169h-212v63h212v-63z" />
    <glyph glyph-name="uni2117" unicode="&#x2117;" horiz-adv-x="740" 
d="M619 92q-99 -102 -249 -102t-249 102q-99 104 -99 258q0 155 99 257q99 103 249 103t249 -103q99 -102 99 -257q0 -154 -99 -258zM171 141q78 -81 199 -81q122 0 198 81q78 83 78 209q0 127 -78 208q-76 82 -198 82q-121 0 -199 -82q-77 -82 -77 -208t77 -209zM353 127
h-76v428h116q113 0 113 -112v-41q0 -112 -113 -112h-40v-163zM353 485v-125h36q41 0 41 51v23q0 51 -41 51h-36z" />
    <glyph glyph-name="uni2120" unicode="&#x2120;" horiz-adv-x="595" 
d="M123 336q-101 0 -101 90v22h67v-21q0 -33 33 -33t33 34q0 24 -12.5 38.5t-47.5 32.5q-41 21 -57 47t-16 64q0 44 26 70t72 26q48 0 73 -23.5t25 -66.5v-11h-66v10q0 33 -30 33t-30 -32q0 -21 12 -34t50 -35q40 -23 55 -48t15 -65q0 -46 -26.5 -72t-74.5 -26zM326 344h-61
v356h103l44 -226l43 226h103v-356h-66v271l-57 -271h-52l-57 271v-271z" />
    <glyph glyph-name="trademark" unicode="&#x2122;" horiz-adv-x="597" 
d="M152 344h-70v292h-73v64h216v-64h-73v-292zM328 344h-61v356h103l44 -226l43 226h103v-356h-66v271l-57 -271h-52l-57 271v-271z" />
    <glyph glyph-name="uni2126" unicode="&#x2126;" horiz-adv-x="398" 
d="M183 0h-151v100h82q-45 48 -64 103q-18 53 -18 135v196q0 84 43 130t124 46t124 -46t43 -130v-196q0 -81 -18.5 -134.5t-63.5 -103.5h82v-100h-151v100q24 41 32.5 83t8.5 108v250q0 69 -57 69t-57 -69v-250q0 -66 8.5 -108t32.5 -83v-100z" />
    <glyph glyph-name="estimated" unicode="&#x212e;" horiz-adv-x="821" 
d="M413 -10q-157 0 -269 106q-111 107 -111 254q0 148 111 254q112 106 269 106q158 0 268 -106q112 -106 112 -254v-9h-613q-8 0 -8 -7v-193q0 -5 11 -21q36 -52 97.5 -80t134.5 -28q146 0 244 120h56q-54 -67 -133.5 -104.5t-168.5 -37.5zM180 361h469q7 0 7 7v196
q0 9 -12 22q-42 49 -102 75.5t-127 26.5q-126 0 -232 -106q-11 -11 -11 -22v-192q0 -7 8 -7z" />
    <glyph glyph-name="uni2153" unicode="&#x2153;" horiz-adv-x="649" 
d="M196 256h-70v339h-74v49q43 0 63.5 12t34.5 44h46v-444zM224 0h-70l271 700h70zM403 102v37h66v-42q0 -44 36 -44t36 51v40q0 31 -10.5 43.5t-34.5 12.5h-24v63h27q42 0 42 48v29q0 51 -36 51t-36 -44v-27h-66v22q0 112 104 112t104 -112v-19q0 -67 -49 -89v-2
q49 -21 49 -93v-37q0 -112 -104 -112t-104 112z" />
    <glyph glyph-name="uni2154" unicode="&#x2154;" horiz-adv-x="649" 
d="M239 256h-202v50q0 49 15 85t54 77q39 39 54 68.5t15 63.5q0 47 -36 47t-36 -44v-41h-66v37q0 111 104 111q51 0 77.5 -28t26.5 -80q0 -42 -19.5 -81t-66.5 -89q-31 -33 -42 -54t-11 -47v-12h133v-63zM224 0h-70l271 700h70zM403 102v37h66v-42q0 -44 36 -44t36 51v40
q0 31 -10.5 43.5t-34.5 12.5h-24v63h27q42 0 42 48v29q0 51 -36 51t-36 -44v-27h-66v22q0 112 104 112t104 -112v-19q0 -67 -49 -89v-2q49 -21 49 -93v-37q0 -112 -104 -112t-104 112z" />
    <glyph glyph-name="oneeighth" unicode="&#x215b;" horiz-adv-x="649" 
d="M196 256h-70v339h-74v49q43 0 63.5 12t34.5 44h46v-444zM224 0h-70l271 700h70zM399 101v35q0 69 45 93v2q-42 23 -42 88v23q0 54 28 83t80 29t80 -29t28 -83v-23q0 -65 -42 -88v-2q45 -24 45 -93v-35q0 -53 -28.5 -82t-82.5 -29t-82.5 29t-28.5 82zM548 310v34
q0 47 -38 47t-38 -47v-34q0 -47 38 -47t38 47zM551 102v47q0 51 -41 51t-41 -51v-47q0 -49 41 -49t41 49z" />
    <glyph glyph-name="threeeighths" unicode="&#x215c;" horiz-adv-x="649" 
d="M32 358v37h66v-42q0 -44 36 -44t36 51v40q0 31 -10.5 43.5t-34.5 12.5h-24v63h27q42 0 42 48v29q0 51 -36 51t-36 -44v-27h-66v22q0 112 104 112t104 -112v-19q0 -67 -49 -89v-2q49 -21 49 -93v-37q0 -112 -104 -112t-104 112zM224 0h-70l271 700h70zM399 101v35
q0 69 45 93v2q-42 23 -42 88v23q0 54 28 83t80 29t80 -29t28 -83v-23q0 -65 -42 -88v-2q45 -24 45 -93v-35q0 -53 -28.5 -82t-82.5 -29t-82.5 29t-28.5 82zM548 310v34q0 47 -38 47t-38 -47v-34q0 -47 38 -47t38 47zM551 102v47q0 51 -41 51t-41 -51v-47q0 -49 41 -49t41 49
z" />
    <glyph glyph-name="fiveeighths" unicode="&#x215d;" horiz-adv-x="649" 
d="M37 358v25h66v-29q0 -43 36 -43t36 43v100q0 44 -36 44t-36 -44v-9h-66l13 255h184v-63h-123l-5 -108q19 33 61 33q78 0 78 -102v-102q0 -54 -26.5 -83t-77.5 -29t-77.5 29t-26.5 83zM224 0h-70l271 700h70zM399 101v35q0 69 45 93v2q-42 23 -42 88v23q0 54 28 83t80 29
t80 -29t28 -83v-23q0 -65 -42 -88v-2q45 -24 45 -93v-35q0 -53 -28.5 -82t-82.5 -29t-82.5 29t-28.5 82zM548 310v34q0 47 -38 47t-38 -47v-34q0 -47 38 -47t38 47zM551 102v47q0 51 -41 51t-41 -51v-47q0 -49 41 -49t41 49z" />
    <glyph glyph-name="seveneighths" unicode="&#x215e;" horiz-adv-x="649" 
d="M131 256h-70l113 381h-142v63h210v-61zM224 0h-70l271 700h70zM399 101v35q0 69 45 93v2q-42 23 -42 88v23q0 54 28 83t80 29t80 -29t28 -83v-23q0 -65 -42 -88v-2q45 -24 45 -93v-35q0 -53 -28.5 -82t-82.5 -29t-82.5 29t-28.5 82zM548 310v34q0 47 -38 47t-38 -47v-34
q0 -47 38 -47t38 47zM551 102v47q0 51 -41 51t-41 -51v-47q0 -49 41 -49t41 49z" />
    <glyph glyph-name="partialdiff" unicode="&#x2202;" horiz-adv-x="411" 
d="M189 -10q-81 0 -123.5 41.5t-42.5 119.5q0 16 1 21l9 125q11 155 127 155q76 0 104 -64l9 134q0 2 0.5 9t0.5 9q0 37 -13.5 54t-45.5 17q-54 0 -59 -68l-1 -17h-104l1 13q6 84 48 127.5t118 43.5q166 0 166 -163q0 -19 -1 -25l-25 -361q-6 -83 -49.5 -127t-119.5 -44z
M248 156l8 124q5 71 -55 71q-53 0 -59 -67l-8 -124v-9q0 -62 55 -62t59 67z" />
    <glyph glyph-name="emptyset" unicode="&#x2205;" horiz-adv-x="672" 
d="M148 82l-57 -60l-68 62l61 64q-61 82 -61 197q0 139 89 231t224 92q106 0 188 -60l57 60l68 -62l-61 -64q61 -82 61 -197q0 -139 -89 -231t-224 -92q-106 0 -188 60zM157 224l298 312q-53 38 -119 38q-90 0 -149 -65t-59 -164q0 -68 29 -121zM336 116q90 0 149 65t59 164
q0 68 -29 121l-298 -312q53 -38 119 -38z" />
    <glyph glyph-name="uni2206" unicode="&#x2206;" horiz-adv-x="399" 
d="M388 0h-377l114 700h149zM195 575l-68 -475h136z" />
    <glyph glyph-name="product" unicode="&#x220f;" horiz-adv-x="465" 
d="M159 -155h-110v855h367v-855h-110v755h-147v-755z" />
    <glyph glyph-name="summation" unicode="&#x2211;" horiz-adv-x="411" 
d="M387 -155h-362v98l183 331l-183 328v98h362v-100h-242l179 -327l-179 -328h242v-100z" />
    <glyph glyph-name="minus" unicode="&#x2212;" 
d="M373 261h-346v78h346v-78z" />
    <glyph glyph-name="uni2215" unicode="&#x2215;" 
d="M101 0h-84l282 700h84z" />
    <glyph glyph-name="uni2219" unicode="&#x2219;" horiz-adv-x="220" 
d="M174 286h-128v128h128v-128z" />
    <glyph glyph-name="radical" unicode="&#x221a;" horiz-adv-x="473" 
d="M276 -65h-111l-83 376h-67v78h151l65 -307l144 618h84z" />
    <glyph glyph-name="infinity" unicode="&#x221e;" horiz-adv-x="641" 
d="M176 131q-76 0 -113 49q-38 50 -38 121q0 70 38 119q37 49 111 49q46 0 79 -22t63 -70h4q59 92 145 92q75 0 113 -50t38 -120t-38 -120q-38 -48 -111 -48q-46 0 -79 22t-63 70h-5q-56 -92 -144 -92zM182 212q31 0 49.5 18.5t45.5 74.5q-31 52 -48 68q-17 17 -47 17
q-32 0 -52 -25t-20 -64t19.5 -64t52.5 -25zM459 210q32 0 52 25t20 64t-20 64.5t-52 25.5q-29 0 -47 -18q-16 -16 -50 -76q34 -53 51 -69q16 -16 46 -16z" />
    <glyph glyph-name="integral" unicode="&#x222b;" 
d="M120 -170q-42 0 -66 10v100q24 -11 45 -11q45 0 45 50v629q0 69 35 105.5t99 36.5q42 0 66 -10v-99q-17 10 -45 10q-45 0 -45 -50v-629q0 -69 -35 -105.5t-99 -36.5z" />
    <glyph glyph-name="approxequal" unicode="&#x2248;" 
d="M68 313l-57 43q32 55 58.5 77.5t62.5 22.5q30 0 74 -29q44 -28 59 -28q16 0 27.5 11t37.5 49l57 -43q-32 -55 -58.5 -77.5t-62.5 -22.5q-28 0 -74 29q-43 28 -59 28t-27.5 -11t-37.5 -49zM68 141l-57 43q32 55 58.5 77.5t62.5 22.5q30 0 74 -29q44 -28 59 -28
q16 0 27.5 11t37.5 49l57 -43q-32 -55 -58.5 -77.5t-62.5 -22.5q-28 0 -74 29q-43 28 -59 28t-27.5 -11t-37.5 -49z" />
    <glyph glyph-name="notequal" unicode="&#x2260;" 
d="M115 90h-78l53 90h-53v78h99l50 84h-149v78h195l53 90h78l-53 -90h53v-78h-99l-50 -84h149v-78h-195z" />
    <glyph glyph-name="lessequal" unicode="&#x2264;" 
d="M349 281v-80l-306 107v74l306 107v-80l-198 -64zM349 104h-306v78h306v-78z" />
    <glyph glyph-name="greaterequal" unicode="&#x2265;" 
d="M357 308l-306 -107v80l198 64l-198 64v80l306 -107v-74zM357 104h-306v78h306v-78z" />
    <glyph glyph-name="lozenge" unicode="&#x25ca;" 
d="M217 -10h-34l-163 360l163 360h34l163 -360zM110 350l90 -216l90 216l-90 216z" />
    <glyph glyph-name="uniE0FF" unicode="&#xe0ff;" horiz-adv-x="500" 
 />
    <glyph glyph-name="uniEFFD" unicode="&#xeffd;" horiz-adv-x="500" 
 />
    <glyph glyph-name="uniF000" unicode="&#xf000;" horiz-adv-x="500" 
 />
    <glyph glyph-name="uniF8FF" unicode="&#xf8ff;" horiz-adv-x="634" 
d="M264 494h59v116h156v-116h132v-152h-132v-60q0 -110 -63 -174t-165 -64q-101 0 -165 62q-63 63 -63 163t65 162q65 63 176 63zM323 281v61h-60q-39 0 -61 -20q-21 -20 -21 -52t20 -52q23 -18 51 -20t51 21.5t20 61.5z" />
    <glyph glyph-name="_1" horiz-adv-x="0" 
 />
    <glyph glyph-name="CR.001" horiz-adv-x="333" 
 />
    <glyph glyph-name="NULL" horiz-adv-x="0" 
 />
    <glyph glyph-name="uni00A40301" horiz-adv-x="259" 
d="M185 743h-83l70 135h120zM62 -4q-32 0 -51 4v100q15 -4 36 -4q65 0 65 67v537h110v-534q0 -170 -160 -170z" />
    <glyph glyph-name="i.loclTRK" horiz-adv-x="188" 
d="M147 573h-106v116h106v-116zM147 0h-106v510h106v-510z" />
    <glyph glyph-name="germandbls.calt" horiz-adv-x="409" 
d="M375 602l-77 -188q87 -32 87 -162v-79q0 -173 -164 -173h-27v100h27q28 0 41 15.5t13 50.5v93q0 35 -13 50.5t-41 15.5h-27v93l73 182h-116v-600h-110v700h334v-98z" />
    <glyph glyph-name="zero.tf" 
d="M33 166v368q0 84 43 130t124 46t124 -46t43 -130v-368q0 -84 -43 -130t-124 -46t-124 46t-43 130zM257 159v382q0 69 -57 69t-57 -69v-382q0 -69 57 -69t57 69z" />
    <glyph glyph-name="one.tf" 
d="M305 0h-110v534h-115v78q68 0 100 18q32 20 51 70h74v-700z" />
    <glyph glyph-name="two.tf" 
d="M357 0h-318v76q0 78 24 133t86 120q64 69 85 109q23 44 23 92q0 44 -14 62t-43 18q-57 0 -57 -69v-75h-104v68q0 85 42 130.5t122 45.5t122 -45.5t42 -130.5q0 -65 -31 -124q-31 -61 -105 -139q-48 -51 -65.5 -84t-17.5 -72v-15h209v-100z" />
    <glyph glyph-name="three.tf" 
d="M33 164v57h104v-62q0 -69 57 -69q29 0 43 18t14 61v57q0 48 -17 68.5t-55 20.5h-37v100h40q34 0 50 17.5t16 56.5v51q0 70 -55 70q-53 0 -53 -65v-46h-104v37q0 84 41.5 129t119.5 45q79 0 120 -44.5t41 -128.5v-25q0 -112 -78 -141v-2q81 -30 81 -144v-62
q0 -84 -41.5 -128.5t-122.5 -44.5t-122.5 45t-41.5 129z" />
    <glyph glyph-name="four.tf" 
d="M335 0h-110v127h-210v100l200 473h120v-473h52v-100h-52v-127zM225 505l-110 -278h110v278z" />
    <glyph glyph-name="five.tf" 
d="M38 166v55h104v-63q0 -68 57 -68t57 68v157q0 69 -57 69t-57 -69v-6h-104l20 391h290v-100h-192l-9 -167q31 51 97 51q122 0 122 -160v-158q0 -85 -42 -130.5t-122 -45.5t-122 45.5t-42 130.5z" />
    <glyph glyph-name="six.tf" 
d="M36 166v362q0 182 168 182q80 0 122 -45.5t42 -130.5v-13h-104v20q0 69 -57 69q-32 0 -46.5 -19.5t-14.5 -66.5v-134q33 61 102 61q122 0 122 -160v-125q0 -84 -43 -130t-124 -46t-124 46t-43 130zM260 158v124q0 69 -57 69t-57 -69v-124q0 -68 57 -68t57 68z" />
    <glyph glyph-name="seven.tf" 
d="M192 0h-115l179 600h-222v100h330v-96z" />
    <glyph glyph-name="eight.tf" 
d="M28 163v62q0 105 72 143v2q-68 38 -68 138v31q0 83 43.5 127t124.5 44t124.5 -44t43.5 -127v-31q0 -100 -68 -138v-2q72 -38 72 -143v-62q0 -84 -44.5 -128.5t-127.5 -44.5t-127.5 44.5t-44.5 128.5zM258 485v57q0 68 -58 68t-58 -68v-57q0 -70 58 -70t58 70zM262 169v67
q0 79 -62 79t-62 -79v-67q0 -79 62 -79t62 79z" />
    <glyph glyph-name="nine.tf" 
d="M196 -10q-80 0 -122 45.5t-42 130.5v13h104v-20q0 -69 57 -69q32 0 46.5 19.5t14.5 66.5v134q-33 -61 -102 -61q-122 0 -122 160v125q0 84 43 130t124 46t124 -46t43 -130v-362q0 -182 -168 -182zM254 418v124q0 68 -57 68t-57 -68v-124q0 -69 57 -69t57 69z" />
    <glyph glyph-name="zero.dnom" horiz-adv-x="278" 
d="M33 102v240q0 54 27 83t79 29t79 -29t27 -83v-240q0 -54 -27 -83t-79 -29t-79 29t-27 83zM175 97v250q0 44 -36 44t-36 -44v-250q0 -44 36 -44t36 44z" />
    <glyph glyph-name="one.dnom" horiz-adv-x="278" 
d="M196 0h-70v339h-74v49q43 0 63.5 12t34.5 44h46v-444z" />
    <glyph glyph-name="two.dnom" horiz-adv-x="278" 
d="M239 0h-202v50q0 49 15 85t54 77q39 39 54 68.5t15 63.5q0 47 -36 47t-36 -44v-41h-66v37q0 111 104 111q51 0 77.5 -28t26.5 -80q0 -42 -19.5 -81t-66.5 -89q-31 -33 -42 -54t-11 -47v-12h133v-63z" />
    <glyph glyph-name="three.dnom" horiz-adv-x="278" 
d="M32 102v37h66v-42q0 -44 36 -44t36 51v40q0 31 -10.5 43.5t-34.5 12.5h-24v63h27q42 0 42 48v29q0 51 -36 51t-36 -44v-27h-66v22q0 112 104 112t104 -112v-19q0 -67 -49 -89v-2q49 -21 49 -93v-37q0 -112 -104 -112t-104 112z" />
    <glyph glyph-name="four.dnom" horiz-adv-x="278" 
d="M224 0h-70v80h-133v63l127 301h76v-301h33v-63h-33v-80zM155 323l-71 -180h71v180z" />
    <glyph glyph-name="five.dnom" horiz-adv-x="278" 
d="M37 102v25h66v-29q0 -43 36 -43t36 43v100q0 44 -36 44t-36 -44v-9h-66l13 255h184v-63h-123l-5 -108q20 33 61 33q78 0 78 -102v-102q0 -54 -26.5 -83t-77.5 -29t-77.5 29t-26.5 83z" />
    <glyph glyph-name="six.dnom" horiz-adv-x="278" 
d="M36 102v237q0 115 107 115q51 0 77.5 -29t26.5 -83v-6h-66v11q0 44 -36 44q-21 0 -30 -12.5t-9 -42.5v-92q21 38 65 38q77 0 77 -101v-79q0 -54 -27.5 -83t-78.5 -29t-78.5 29t-27.5 83zM178 96v79q0 44 -36 44t-36 -44v-79q0 -43 36 -43t36 43z" />
    <glyph glyph-name="seven.dnom" horiz-adv-x="278" 
d="M131 0h-70l113 381h-142v63h210v-61z" />
    <glyph glyph-name="eight.dnom" horiz-adv-x="278" 
d="M28 101v35q0 69 45 93v2q-42 23 -42 88v23q0 54 28 83t80 29t80 -29t28 -83v-23q0 -65 -42 -88v-2q45 -24 45 -93v-35q0 -53 -28.5 -82t-82.5 -29t-82.5 29t-28.5 82zM177 310v34q0 47 -38 47t-38 -47v-34q0 -47 38 -47t38 47zM180 102v47q0 51 -41 51t-41 -51v-47
q0 -49 41 -49t41 49z" />
    <glyph glyph-name="nine.dnom" horiz-adv-x="278" 
d="M135 -10q-51 0 -77.5 29t-26.5 83v6h66v-11q0 -44 36 -44q21 0 30 12.5t9 42.5v92q-21 -38 -65 -38q-77 0 -77 101v79q0 54 27.5 83t78.5 29t78.5 -29t27.5 -83v-237q0 -115 -107 -115zM172 269v79q0 43 -36 43t-36 -43v-79q0 -44 36 -44t36 44z" />
    <glyph glyph-name="zero.numr" horiz-adv-x="278" 
d="M33 358v240q0 54 27 83t79 29t79 -29t27 -83v-240q0 -54 -27 -83t-79 -29t-79 29t-27 83zM175 353v250q0 44 -36 44t-36 -44v-250q0 -44 36 -44t36 44z" />
    <glyph glyph-name="one.numr" horiz-adv-x="278" 
d="M196 256h-70v339h-74v49q43 0 63.5 12t34.5 44h46v-444z" />
    <glyph glyph-name="two.numr" horiz-adv-x="278" 
d="M239 256h-202v50q0 49 15 85t54 77q39 39 54 68.5t15 63.5q0 47 -36 47t-36 -44v-41h-66v37q0 111 104 111q51 0 77.5 -28t26.5 -80q0 -42 -19.5 -81t-66.5 -89q-31 -33 -42 -54t-11 -47v-12h133v-63z" />
    <glyph glyph-name="three.numr" horiz-adv-x="278" 
d="M32 358v37h66v-42q0 -44 36 -44t36 51v40q0 31 -10.5 43.5t-34.5 12.5h-24v63h27q42 0 42 48v29q0 51 -36 51t-36 -44v-27h-66v22q0 112 104 112t104 -112v-19q0 -67 -49 -89v-2q49 -21 49 -93v-37q0 -112 -104 -112t-104 112z" />
    <glyph glyph-name="four.numr" horiz-adv-x="278" 
d="M224 256h-70v80h-133v63l127 301h76v-301h33v-63h-33v-80zM155 579l-71 -180h71v180z" />
    <glyph glyph-name="five.numr" horiz-adv-x="278" 
d="M37 358v25h66v-29q0 -43 36 -43t36 43v100q0 44 -36 44t-36 -44v-9h-66l13 255h184v-63h-123l-5 -108q19 33 61 33q78 0 78 -102v-102q0 -54 -26.5 -83t-77.5 -29t-77.5 29t-26.5 83z" />
    <glyph glyph-name="six.numr" horiz-adv-x="278" 
d="M36 358v237q0 115 107 115q51 0 77.5 -29t26.5 -83v-6h-66v11q0 44 -36 44q-21 0 -30 -12.5t-9 -42.5v-92q21 38 65 38q77 0 77 -101v-79q0 -54 -27.5 -83t-78.5 -29t-78.5 29t-27.5 83zM178 352v79q0 44 -36 44t-36 -44v-79q0 -43 36 -43t36 43z" />
    <glyph glyph-name="seven.numr" horiz-adv-x="278" 
d="M131 256h-70l113 381h-142v63h210v-61z" />
    <glyph glyph-name="eight.numr" horiz-adv-x="278" 
d="M28 357v35q0 69 45 93v2q-42 23 -42 88v23q0 54 28 83t80 29t80 -29t28 -83v-23q0 -65 -42 -88v-2q45 -24 45 -93v-35q0 -53 -28.5 -82t-82.5 -29t-82.5 29t-28.5 82zM177 566v34q0 47 -38 47t-38 -47v-34q0 -47 38 -47t38 47zM180 358v47q0 51 -41 51t-41 -51v-47
q0 -49 41 -49t41 49z" />
    <glyph glyph-name="nine.numr" horiz-adv-x="278" 
d="M135 246q-51 0 -77.5 29t-26.5 83v6h66v-11q0 -44 36 -44q21 0 30 12.5t9 42.5v92q-21 -38 -65 -38q-77 0 -77 101v79q0 54 27.5 83t78.5 29t78.5 -29t27.5 -83v-237q0 -115 -107 -115zM172 525v79q0 43 -36 43t-36 -43v-79q0 -44 36 -44t36 44z" />
    <glyph glyph-name="caroncomb.alt" horiz-adv-x="0" 
d="M5 494h-45l29 104h-40v102h102v-91z" />
    <glyph glyph-name="caron.alt" horiz-adv-x="500" 
d="M255 494h-45l29 104h-40v102h102v-91z" />
    </font>
</defs>
</svg>
